<svg width="35" height="35" viewBox="0 0 35 35" fill="none" xmlns="http://www.w3.org/2000/svg">
<g clip-path="url(#clip0)">
<path d="M12.2916 27.44L7.06995 30.2882C6.76354 30.4553 6.48816 30.6607 6.23193 30.8845C9.27627 33.4514 13.2062 35 17.5 35C21.762 35 25.6668 33.4745 28.7026 30.9427C28.4226 30.7062 28.1188 30.4936 27.782 30.3259L22.1906 27.5305C21.4682 27.1693 21.0118 26.431 21.0118 25.6233V23.4295C21.169 23.2506 21.3486 23.0208 21.5408 22.7494C22.3029 21.6729 22.8794 20.4889 23.2789 19.2467C23.9961 19.0255 24.5244 18.3631 24.5244 17.576V15.2343C24.5244 14.7192 24.2952 14.2589 23.9393 13.9366V10.5515C23.9393 10.5515 24.6347 5.28369 17.5006 5.28369C10.3666 5.28369 11.0619 10.5515 11.0619 10.5515V13.9366C10.7053 14.2589 10.4768 14.7192 10.4768 15.2343V17.576C10.4768 18.1927 10.8011 18.7356 11.2865 19.0493C11.8716 21.5963 13.4036 23.4295 13.4036 23.4295V25.5692C13.403 26.3484 12.9764 27.0662 12.2916 27.44Z" fill="#005930" fill-opacity="0.2"/>
</g>
<defs>
<clipPath id="clip0">
<rect width="35" height="35" fill="white"/>
</clipPath>
</defs>
</svg>
