<svg width="30" height="30" viewBox="0 0 30 30" fill="none" xmlns="http://www.w3.org/2000/svg">
<path fill-rule="evenodd" clip-rule="evenodd" d="M18.6516 10.8333L20.1869 13.9039L22.4999 15.4459V18.3333H21.5243C21.1811 17.3623 20.2551 16.6666 19.1666 16.6666C18.0781 16.6666 17.152 17.3623 16.8088 18.3333H13.191C12.8478 17.3623 11.9218 16.6666 10.8333 16.6666C9.74474 16.6666 8.8187 17.3623 8.47551 18.3333H7.49992V10.8333H18.6516ZM22.4999 20H21.5243C21.1811 20.971 20.2551 21.6666 19.1666 21.6666C18.0781 21.6666 17.152 20.971 16.8088 20H13.191C12.8478 20.971 11.9218 21.6666 10.8333 21.6666C9.74474 21.6666 8.8187 20.971 8.47551 20H7.49992C6.57944 20 5.83325 19.2538 5.83325 18.3333V10.8333C5.83325 9.91282 6.57944 9.16663 7.49992 9.16663H18.6516C19.2828 9.16663 19.8599 9.5233 20.1423 10.0879L21.4796 12.7627L24.1666 14.554V18.3333C24.1666 19.2538 23.4204 20 22.4999 20ZM11.6666 19.1666C11.6666 19.6269 11.2935 20 10.8333 20C10.373 20 9.99992 19.6269 9.99992 19.1666C9.99992 18.7064 10.373 18.3333 10.8333 18.3333C11.2935 18.3333 11.6666 18.7064 11.6666 19.1666ZM19.9999 19.1666C19.9999 19.6269 19.6268 20 19.1666 20C18.7063 20 18.3333 19.6269 18.3333 19.1666C18.3333 18.7064 18.7063 18.3333 19.1666 18.3333C19.6268 18.3333 19.9999 18.7064 19.9999 19.1666Z" fill="#75624B"/>
<circle cx="15" cy="15" r="15" fill="#D6B184" fill-opacity="0.2"/>
</svg>
