<svg width="30" height="30" viewBox="0 0 30 30" fill="none" xmlns="http://www.w3.org/2000/svg">
<path fill-rule="evenodd" clip-rule="evenodd" d="M14.9999 24.1667C9.93731 24.1667 5.83325 20.0626 5.83325 15C5.83325 9.93743 9.93731 5.83337 14.9999 5.83337C20.0625 5.83337 24.1666 9.93743 24.1666 15C24.1666 20.0626 20.0625 24.1667 14.9999 24.1667ZM21.1662 19.2706C22.0071 18.0586 22.4999 16.5869 22.4999 15C22.4999 10.8579 19.1421 7.50004 14.9999 7.50004C10.8578 7.50004 7.49992 10.8579 7.49992 15C7.49992 16.5869 7.99274 18.0586 8.83367 19.2706C9.77155 18.0318 11.9754 17.5 14.9999 17.5C18.0244 17.5 20.2283 18.0318 21.1662 19.2706ZM19.9705 20.6165C19.7266 19.7395 17.9744 19.1667 14.9999 19.1667C12.0254 19.1667 10.2733 19.7395 10.0293 20.6165C11.3527 21.7885 13.0932 22.5 14.9999 22.5C16.9066 22.5 18.6472 21.7885 19.9705 20.6165ZM14.9999 10C12.9825 10 11.6666 11.4632 11.6666 13.3334C11.6666 16.1895 13.134 17.5 14.9999 17.5C16.8483 17.5 18.3333 16.2331 18.3333 13.5C18.3333 11.6014 17.0117 10 14.9999 10ZM13.3333 13.3334C13.3333 15.2244 14.0151 15.8334 14.9999 15.8334C15.9813 15.8334 16.6666 15.2487 16.6666 13.5C16.6666 12.4587 16.013 11.6667 14.9999 11.6667C13.9447 11.6667 13.3333 12.3466 13.3333 13.3334Z" fill="#75624B"/>
<circle cx="15" cy="15" r="15" fill="#D6B184" fill-opacity="0.2"/>
</svg>
