<svg width="20" height="20" viewBox="0 0 20 20" fill="none" xmlns="http://www.w3.org/2000/svg">
<g clip-path="url(#clip0)">
<path d="M9.37499 18.7509H1.25002V1.25094H9.37499C9.72 1.25094 9.99997 0.97092 9.99997 0.625959C9.99997 0.280998 9.71995 0.000976562 9.37499 0.000976562H0.624982C0.280021 0.000976562 0 0.280946 0 0.625959V19.3759C0 19.7209 0.280021 20.0009 0.624982 20.0009H9.37494C9.71995 20.0009 9.99992 19.7209 9.99992 19.3759C9.99997 19.0309 9.71995 18.7509 9.37499 18.7509Z" fill="#005930"/>
<path d="M19.8187 9.56367L15.5063 5.18932C15.2619 4.94244 14.8663 4.94307 14.6225 5.18932C14.3781 5.43557 14.3781 5.83555 14.6225 6.0818L17.8725 9.37867H5.00194C4.65692 9.37867 4.37695 9.66119 4.37695 10.0099C4.37695 10.3587 4.65697 10.6412 5.00194 10.6412H17.8725L14.6225 13.9381C14.3781 14.185 14.3781 14.5843 14.6225 14.8306C14.8669 15.0774 15.2625 15.0774 15.5063 14.8306L19.8181 10.4562C20.0594 10.2131 20.0619 9.80618 19.8187 9.56367Z" fill="#005930"/>
</g>
<defs>
<clipPath id="clip0">
<rect width="20" height="20" fill="white"/>
</clipPath>
</defs>
</svg>
