<svg width="200" height="200" viewBox="0 0 200 200" fill="none" xmlns="http://www.w3.org/2000/svg">
<circle cx="100" cy="100" r="100" fill="white"/>
<path d="M179.186 149.495H123.281H127.154L162.513 149.085C169.049 148.517 173.655 142.106 171.172 136.036C170.743 134.987 171.191 134.695 170.66 133.684C165.102 123.217 155.464 114.691 144.543 109.738C144.814 109.687 145.086 109.65 145.365 109.613C143.331 108.594 141.236 107.702 139.093 106.941C137.956 106.536 136.805 106.169 135.657 105.848C130.01 104.256 122.38 104.983 119.977 111.236C117.956 116.485 120.639 122.825 125.686 125.124L134.751 128.59C134.675 128.476 134.606 128.362 134.536 128.243L142.419 131.255C142.739 131.48 142.886 131.879 142.788 132.258C142.69 132.637 142.367 132.914 141.978 132.955L122.832 135.046C120.073 135.324 116.617 136.479 114.583 138.378C113.099 139.75 111.849 141.618 111.86 143.982C110.609 144.076 109.365 144.251 108.136 144.505C106.261 144.909 104.352 145.604 104.216 146.747C103.95 149.04 107.209 149.507 109.263 149.507L96.2646 149.456C97.6601 149.456 97.8326 149.444 98.7577 148.523C99.6828 147.602 100.718 146.892 100.718 145.497L100.831 141.024C100.831 140.103 101.051 139.358 100.13 139.358H91.8977C92.5822 139.377 93.2145 138.993 93.5147 138.378C93.521 138.371 93.5251 138.362 93.5265 138.352C93.9381 137.588 94.0321 136.488 93.9557 135.448L94.0517 135.107L94.2987 134.197L99.528 131.12C99.5672 131.097 99.6051 131.072 99.6417 131.046C102.37 129.378 102.711 126.396 101.776 123.731C101.757 123.68 101.745 123.635 101.725 123.592C101.682 123.478 101.643 123.37 101.594 123.262C101.344 122.654 101.035 122.073 100.671 121.526C99.3202 119.417 97.3602 117.698 95.4982 117.249C94.976 117.131 94.4421 117.072 93.9067 117.073C100.386 110.997 107.852 105.597 116.67 103.802C124.385 102.208 132.364 102.416 139.986 104.409C148.893 106.779 156.913 111.698 163.273 118.343C171.834 127.275 175.839 137.71 179.186 149.495V149.495Z" fill="#005930"/>
<path d="M92.0838 122.641C91.7764 123.246 91.2736 123.73 90.6569 124.013C90.1304 124.278 89.5726 124.476 88.9968 124.601C88.0482 124.76 87.713 124.16 87.1074 123.572C86.7621 123.239 86.3649 122.963 85.9314 122.757C85.4053 122.499 84.7912 122.489 84.2575 122.731C83.893 122.894 83.658 123.255 83.6578 123.655C83.697 124.374 84.6887 124.942 85.2493 125.24C85.9811 125.586 86.7419 125.867 87.5229 126.079C89.4378 126.667 86.2489 127.892 85.5786 127.969C84.1449 128.163 82.6895 128.128 81.2666 127.867C81.6751 128.779 81.9884 129.732 82.2015 130.709C82.423 131.644 82.6817 132.769 82.4994 133.709C82.2779 134.815 81.5312 135.636 80.61 136.193L77.0291 121.254C79.6983 119.982 82.7769 119.881 85.5237 120.975C86.449 121.316 87.4882 121.087 88.1834 120.387L88.5499 120.033C89.0604 119.921 89.5923 119.964 90.0787 120.154C90.947 120.481 92.5542 121.534 92.0838 122.641V122.641Z" fill="#005930"/>
<path fill-rule="evenodd" clip-rule="evenodd" d="M95.761 139.346H80.9747C80.6652 142.235 78.2272 144.425 75.3221 144.425H25.6125C25.619 147.223 27.8863 149.491 30.685 149.497H95.7571C98.5555 149.487 100.823 147.223 100.835 144.425V141.014C100.835 140.093 100.089 139.346 99.1675 139.346L95.761 139.346Z" stroke="black"/>
<path fill-rule="evenodd" clip-rule="evenodd" d="M72.9268 106.187C73.3636 106.789 73.6774 107.471 73.85 108.194L80.855 137.398C81.0098 138.032 81.0503 138.688 80.9746 139.336C80.665 142.225 78.2271 144.415 75.3219 144.415H24.6893C22.0579 144.413 19.7703 142.609 19.1562 140.05L12.159 110.846C11.7495 109.151 12.1407 107.362 13.2203 105.992C14.2999 104.623 15.9483 103.825 17.6921 103.827H68.3169C70.0006 103.825 71.5978 104.573 72.674 105.868L72.9268 106.187Z" stroke="black"/>
<ellipse cx="46.5126" cy="126.26" rx="5.47429" ry="6.15245" transform="rotate(-17.5 46.5126 126.26)" fill="#E0E0E0"/>
<path d="M145.641 109.443C141.174 110.189 137.74 112.232 135.435 116.459C133.371 120.242 133.13 124.858 135.331 128.611L126.345 125.166C121.141 122.782 119.31 117.486 121.396 112.047C123.875 105.568 131.743 104.815 137.566 106.465C138.752 106.799 139.935 107.179 141.107 107.598C142.639 108.147 144.15 108.762 145.641 109.443V109.443Z" fill="#005930"/>
<path d="M40.9827 103.831C44.5479 99.224 49.4642 95.8469 55.0437 94.1722C54.3005 92.1758 53.7108 90.1255 53.2797 88.0393C48.6502 65.5229 63.1287 43.5101 85.6393 38.8669C108.15 34.2236 130.17 48.6963 134.812 71.2069C135.331 73.7294 135.619 76.2938 135.674 78.8685C137.282 78.2979 138.928 77.8395 140.6 77.4965C160.272 73.4295 179.519 86.0872 183.58 105.764C185.904 116.981 182.8 128.638 175.205 137.214" stroke="#9F9F9F"/>
<path d="M90.0513 139.348H91.4409C92.251 139.368 93.0229 139.005 93.5244 138.368C93.5308 138.361 93.5355 138.352 93.5381 138.343C94.0365 137.661 94.2636 136.819 94.1751 135.979L94.0614 135.095L93.9673 134.382L94.3084 134.186L99.6513 131.034L100.012 130.826C102.621 129.292 102.809 126.43 101.786 123.719C101.768 123.67 101.754 123.625 101.737 123.58C101.692 123.466 101.647 123.361 101.604 123.253C101.342 122.651 101.033 122.07 100.68 121.516C99.3299 119.405 97.3719 117.688 95.5079 117.24C94.9858 117.121 94.4519 117.061 93.9164 117.063C92.7992 117.063 91.5644 117.277 90.9156 117.922C97.8462 111.103 105.943 104.703 115.682 102.718C123.401 101.127 131.383 101.339 139.006 103.337C147.912 105.707 155.941 110.632 162.301 117.277C162.636 117.626 162.963 117.978 163.281 118.339C171.252 127.1 176.336 138.166 179.549 149.491" stroke="black"/>
<path d="M92.4954 149.497H188.398" stroke="black"/>
<path d="M116.639 149.495H127.521" stroke="black"/>
<path fill-rule="evenodd" clip-rule="evenodd" d="M125.735 125.074C120.686 122.775 118.005 116.434 120.023 111.187C122.43 104.933 130.061 104.206 135.703 105.797C136.856 106.12 138.001 106.484 139.139 106.891C151.826 111.399 163.355 120.758 169.651 132.616C170.182 133.619 170.605 134.65 171.034 135.701C172.208 138.563 171.95 141.813 170.34 144.454C168.729 147.096 165.959 148.814 162.877 149.082L127.52 149.495H116.639C114.667 149.496 112.915 148.241 112.279 146.375C111.086 142.847 112.628 140.185 114.579 138.372C116.613 136.483 119.267 135.403 122.027 135.125L141.889 133.118C142.279 133.078 142.602 132.8 142.701 132.421C142.801 132.042 142.654 131.642 142.334 131.416L125.735 125.074Z" stroke="black"/>
<path d="M119.814 138.978C118.001 140.021 116.137 141.653 115.514 143.721C114.796 146.103 116.48 148.266 118.393 149.505" stroke="black"/>
<path d="M121.758 141.71C120.067 143.319 118.601 145.36 119.579 147.786C119.858 148.452 120.294 149.041 120.849 149.503" stroke="black"/>
<path d="M125.076 144.858C125.076 144.858 121.182 147.753 123.655 149.489" stroke="black"/>
<path d="M115.08 149.219L115.149 149.497H108.865C106.811 149.497 103.965 149.182 104.234 146.889C104.502 144.595 111.858 143.97 111.858 143.97" stroke="black"/>
<path d="M103.809 77.1085L90.4356 79.1096L92.766 80.7521L97.1251 84.2429C97.8072 84.7231 97.6366 85.856 98.0149 86.5439C98.3085 88.666 97.3136 90.7598 95.483 91.8727C93.6524 92.9855 91.3357 92.9048 89.5869 91.6674L79.0715 84.2703C77.9107 83.4689 76.9791 82.3785 76.3687 81.1069C75.5082 76.8243 78.1483 72.0615 83.2287 71.3069L97.8464 69.1117L95.6904 67.4378L89.0518 62.2713C88.4832 61.831 88.0087 61.2811 87.6563 60.6543C87.3543 58.4833 88.3999 56.3463 90.2993 55.2525C92.1987 54.1587 94.5719 54.327 96.298 55.6778L108.14 64.8898C109.109 65.6336 109.892 66.5916 110.428 67.6887C111.235 71.8282 108.652 76.3813 103.809 77.1085V77.1085Z" fill="#005930"/>
<path d="M93.9692 134.38C93.9692 134.38 93.5615 130.793 92.1797 129.529" stroke="black"/>
<path d="M76.8918 121.504C79.5901 120.179 82.7234 120.058 85.5158 121.171C86.4423 121.513 87.483 121.283 88.1795 120.583L90.9098 117.91" stroke="black"/>
<path d="M85.5708 136.741L87.8503 137.766C87.9529 137.809 88.0686 137.806 88.1687 137.758C88.2688 137.71 88.344 137.622 88.3756 137.516L88.7343 136.704" stroke="black"/>
<path d="M85.9432 132.214C86.3327 133.108 86.1889 134.145 85.5708 134.899" stroke="black"/>
<path d="M91.1137 139.346C91.4724 138.815 91.4704 137.531 91.3783 137.016C91.3195 136.688 90.7687 136.571 90.7099 136.9C90.5492 137.819 89.5124 139.233 88.554 139.346" stroke="black"/>
<ellipse cx="86.5115" cy="132.955" rx="2.92627" ry="2.9263" stroke="black"/>
<path d="M85.5315 135.71L85.0102 137.177C84.2791 136.916 83.4743 136.957 82.7732 137.29C82.0721 137.623 81.5322 138.221 81.2725 138.952" stroke="black"/>
<circle opacity="0.53" cx="86.5116" cy="132.955" r="2.47743" fill="white"/>
<path d="M80.5984 136.385C81.5196 135.828 82.2644 135.013 82.4859 133.903C82.6701 132.961 82.4114 131.838 82.1899 130.903C81.9771 129.926 81.6638 128.973 81.255 128.061C82.678 128.322 84.1334 128.355 85.567 128.161C86.2353 128.086 89.4262 126.867 87.5113 126.273C86.7305 126.061 85.9703 125.78 85.2397 125.432C84.6752 125.14 83.6854 124.572 83.6501 123.851C83.6452 123.452 83.8758 123.089 84.2381 122.923C84.7724 122.683 85.3865 122.693 85.9119 122.953C86.3466 123.157 86.7441 123.433 87.0879 123.768C87.6955 124.356 88.0268 124.944 88.9793 124.793C89.5544 124.669 90.1111 124.472 90.6355 124.205C91.2536 123.923 91.7578 123.439 92.0663 122.833C92.5406 121.73 90.9295 120.677 90.0554 120.362C89.5698 120.171 89.0388 120.127 88.5285 120.236" stroke="black"/>
<path fill-rule="evenodd" clip-rule="evenodd" d="M103.809 77.1083L90.4355 79.1095L92.7659 80.752L95.7804 82.8688C97.391 83.9595 98.2874 85.8347 98.1249 87.773C97.9624 89.7114 96.7663 91.4111 94.9966 92.2184C93.2269 93.0258 91.1592 92.815 89.5888 91.6672L79.0734 84.2702C77.9126 83.4687 76.981 82.3784 76.3705 81.1067C74.1342 76.4635 76.7488 70.2797 82.5916 69.4075L94.1889 67.6709L95.6903 67.4377L89.0517 62.2711C87.5354 61.0909 86.7638 59.1913 87.0278 57.288C87.2917 55.3846 88.5511 53.7667 90.3314 53.0436C92.1117 52.3205 94.1425 52.6021 95.6589 53.7824L107.501 62.9944C109.017 64.1472 110.056 65.8173 110.42 67.6866C111.235 71.8281 108.652 76.3812 103.809 77.1083V77.1083Z" stroke="black"/>
<path d="M74.4556 99.8424L74.3263 96.4261L72.8112 97.9784C72.2761 98.5253 71.3993 98.5358 70.8512 98.002C70.3044 97.4668 70.2938 96.5901 70.8277 96.042L73.5423 93.2705C74.1141 92.6853 74.9795 92.497 75.7428 92.7917C76.506 93.0863 77.0204 93.8073 77.0507 94.6249L77.1781 98.1098L78.2953 96.8495C78.5392 96.5733 78.8831 96.4057 79.2509 96.3836C79.6187 96.3616 79.9801 96.4869 80.2553 96.7319C80.5312 96.9758 80.6989 97.3195 80.7213 97.6871C80.7438 98.0547 80.6191 98.4162 80.3748 98.6919L78.1738 101.175C77.5991 101.831 76.6818 102.069 75.861 101.774C75.0402 101.48 74.4828 100.714 74.4556 99.8424V99.8424Z" fill="#E0E0E0"/>
<path d="M85.812 106.005L87.425 105.644L86.5528 105.056C86.2452 104.849 86.1629 104.432 86.3686 104.123C86.5759 103.815 86.9936 103.734 87.3016 103.941L88.8578 104.982C89.1875 105.202 89.354 105.597 89.2811 105.987C89.2081 106.377 88.9096 106.685 88.5226 106.771L86.8704 107.143L87.5701 107.565C87.7225 107.657 87.8321 107.805 87.8748 107.978C87.9174 108.151 87.8896 108.334 87.7974 108.486C87.606 108.803 87.194 108.906 86.8762 108.715L85.5042 107.886C85.1431 107.67 84.9505 107.256 85.0184 106.841C85.0863 106.426 85.4009 106.094 85.812 106.005V106.005Z" fill="#E0E0E0"/>
<path d="M81.7332 115.426L81.8645 114.348L81.3099 114.76C81.2161 114.83 81.0983 114.86 80.9825 114.843C80.8667 114.826 80.7623 114.764 80.6925 114.67C80.5479 114.474 80.5881 114.199 80.7826 114.052L81.7626 113.317C81.9713 113.162 82.2526 113.146 82.4778 113.276C82.7029 113.407 82.8287 113.659 82.7975 113.917L82.6642 115.019L83.0778 114.678C83.1682 114.603 83.2845 114.568 83.401 114.579C83.5176 114.591 83.6248 114.648 83.6991 114.738C83.7736 114.829 83.809 114.945 83.7976 115.062C83.7862 115.178 83.7289 115.286 83.6383 115.36L82.823 116.03C82.6096 116.2 82.315 116.224 82.0764 116.092C81.8379 115.96 81.7024 115.697 81.7332 115.426V115.426Z" fill="#E0E0E0"/>
<path d="M145.641 109.578L145.559 109.717C145.496 109.678 145.43 109.644 145.363 109.615L145.641 109.578Z" fill="#353642"/>
</svg>
