<svg width="30" height="30" viewBox="0 0 30 30" fill="none" xmlns="http://www.w3.org/2000/svg">
<path fill-rule="evenodd" clip-rule="evenodd" d="M22.4551 6.66663L23.2833 21.5742C23.3344 22.4932 22.6307 23.2797 21.7116 23.3307C21.6654 23.3329 21.6654 23.3329 21.6192 23.3333H8.38102C7.46055 23.3333 6.71436 22.5871 6.71436 21.6666C6.71478 21.6204 6.71478 21.6204 6.71692 21.5742L7.54512 6.66663H22.4551ZM9.12176 8.33329L8.38102 21.6666H21.6192L20.8785 8.33329H9.12176ZM12.5001 9.99996H10.8334V12.0833C10.8334 14.0839 12.7695 15.8333 15.0001 15.8333C17.2307 15.8333 19.1668 14.0839 19.1668 12.0833V9.99996H17.5001V12.0833C17.5001 13.1236 16.3458 14.1666 15.0001 14.1666C13.6544 14.1666 12.5001 13.1236 12.5001 12.0833V9.99996Z" fill="#75624B"/>
<circle cx="15" cy="15" r="15" fill="#D6B184" fill-opacity="0.2"/>
</svg>
