<svg width="20" height="20" viewBox="0 0 20 20" fill="none" xmlns="http://www.w3.org/2000/svg">
<g clip-path="url(#clip0)">
<path d="M14.7839 0C13.2456 0 11.8686 0.675952 10.9127 1.73913H1.8932C0.857458 1.73913 0.00509381 2.59171 0.00509381 3.62772V17.9212C-0.00169794 17.9671 -0.00169794 18.0113 0.00509381 18.0571V18.1114C0.00509381 19.1474 0.857458 20 1.8932 20H16.3732C17.4089 20 18.2613 19.1474 18.2613 18.1114V18.0707C18.2681 18.0248 18.2681 17.9807 18.2613 17.9347V9.32067C19.1765 8.10122 20 6.91067 20 5.21739C20 2.34035 17.6602 0 14.7839 0ZM14.7839 0.869567C17.1899 0.869567 19.1307 2.8108 19.1307 5.21739C19.1307 6.70177 18.3954 7.69192 17.4327 8.96742C16.5107 10.1885 15.4257 11.6627 14.7839 13.8858C14.1421 11.6627 13.0572 10.1885 12.1352 8.96742C11.7769 8.49183 11.4407 8.05877 11.1707 7.62228C11.1707 7.61718 11.1707 7.61379 11.1707 7.60869C11.1657 7.6002 11.1623 7.59002 11.1572 7.58152C11.1385 7.51019 11.1011 7.44395 11.0485 7.39131C10.6732 6.73064 10.4372 6.05299 10.4372 5.21739C10.4372 2.8108 12.378 0.869567 14.7839 0.869567ZM1.8932 2.60869H10.2742C9.82767 3.37636 9.56792 4.26631 9.56792 5.21739C9.56792 6.1464 9.81917 6.92086 10.1928 7.63587L0.874442 16.9429V3.62772C0.874442 3.06216 1.32778 2.60869 1.8932 2.60869ZM4.40615 3.47826C2.93913 3.47826 1.74378 4.67392 1.74378 6.14131C1.74378 7.60869 2.93913 8.79075 4.40615 8.79075C6.72892 8.79075 7.12454 6.70177 6.90551 5.66576H4.40615V6.68478H5.846C5.65752 7.29959 5.14984 7.74457 4.40615 7.74457C3.52153 7.74457 2.80329 7.02616 2.80329 6.14131C2.80329 5.25645 3.52153 4.53804 4.40615 4.53804C4.80347 4.53804 5.15833 4.67901 5.43849 4.91848L6.18558 4.17119C5.71356 3.74151 5.09551 3.47826 4.40615 3.47826ZM14.7839 3.47826C13.828 3.47826 13.0452 4.26121 13.0452 5.21739C13.0452 6.17357 13.828 6.95652 14.7839 6.95652C15.7399 6.95652 16.5227 6.17357 16.5227 5.21739C16.5227 4.26121 15.7399 3.47826 14.7839 3.47826ZM14.7839 4.34782C15.2696 4.34782 15.6532 4.73166 15.6532 5.21739C15.6532 5.70312 15.2696 6.08696 14.7839 6.08696C14.2983 6.08696 13.9146 5.70312 13.9146 5.21739C13.9146 4.73166 14.2983 4.34782 14.7839 4.34782ZM10.6546 8.39675C10.8991 8.76525 11.1537 9.13383 11.4288 9.49725C11.4322 9.50242 11.439 9.50575 11.4424 9.51083L1.83887 19.1168C1.3193 19.088 0.916883 18.6855 0.888025 18.1658L10.6546 8.39675ZM11.9586 10.2174C12.58 11.0666 13.1998 12.0092 13.6701 13.2337L11.3066 10.8696L11.9586 10.2174ZM17.392 10.5027V16.9429L15.368 14.9321C15.3884 14.8964 15.4105 14.8557 15.4223 14.8233C15.4937 14.6348 15.4852 14.5108 15.5174 14.3886C15.9504 12.7242 16.6585 11.5319 17.392 10.5027ZM10.6953 11.481L17.3784 18.1658C17.3495 18.6855 16.9471 19.088 16.4275 19.1168L9.7445 12.4321L10.6953 11.481ZM9.13317 13.0435L15.205 19.1304H3.06138L9.13317 13.0435Z" fill="#005930"/>
</g>
<defs>
<clipPath id="clip0">
<rect width="20" height="20" fill="white"/>
</clipPath>
</defs>
</svg>
