<svg width="20" height="20" viewBox="0 0 20 20" fill="none" xmlns="http://www.w3.org/2000/svg">
<path fill-rule="evenodd" clip-rule="evenodd" d="M10 19.4396L10.5481 18.961C15.1572 14.9364 17.5 11.4222 17.5 8.33325C17.5 3.95881 14.0858 0.833252 10 0.833252C5.91421 0.833252 2.5 3.95881 2.5 8.33325C2.5 11.4222 4.84276 14.9364 9.45189 18.961L10 19.4396ZM10 17.2194C6.08884 13.6945 4.16667 10.7076 4.16667 8.33325C4.16667 4.91375 6.80343 2.49992 10 2.49992C13.1966 2.49992 15.8333 4.91375 15.8333 8.33325C15.8333 10.7076 13.9112 13.6945 10 17.2194ZM10 4.16658C12.3012 4.16658 14.1667 6.03207 14.1667 8.33325C14.1667 10.6344 12.3012 12.4999 10 12.4999C7.69881 12.4999 5.83333 10.6344 5.83333 8.33325C5.83333 6.03207 7.69881 4.16658 10 4.16658ZM7.5 8.33325C7.5 6.95254 8.61929 5.83325 10 5.83325C11.3807 5.83325 12.5 6.95254 12.5 8.33325C12.5 9.71396 11.3807 10.8333 10 10.8333C8.61929 10.8333 7.5 9.71396 7.5 8.33325Z" fill="#005930"/>
</svg>
