<svg width="20" height="20" viewBox="0 0 20 20" fill="none" xmlns="http://www.w3.org/2000/svg">
<path d="M4.76191 0C2.13746 0 0 2.13746 0 4.76191V15.2381C0 17.8625 2.13746 20 4.76191 20H15.2381C17.8625 20 20 17.8625 20 15.2381V4.76191C20 2.13746 17.8625 0 15.2381 0H4.76191ZM4.76191 0.952383H15.2381C17.3479 0.952383 19.0476 2.65207 19.0476 4.76191V15.2381C19.0476 17.3479 17.3479 19.0476 15.2381 19.0476H4.76191C2.65207 19.0476 0.952383 17.3479 0.952383 15.2381V4.76191C0.952383 2.65207 2.65207 0.952383 4.76191 0.952383ZM10.4613 4.29037C7.56005 4.29037 5.20782 6.7059 5.20833 9.6605C5.20833 10.0101 5.196 10.4918 5.08649 10.8203C5.03174 10.9846 4.95957 11.1 4.88095 11.1682C4.80234 11.2362 4.71524 11.2816 4.51916 11.2816C4.44069 11.2817 4.36345 11.3011 4.29429 11.3382C4.22514 11.3752 4.16622 11.4288 4.12278 11.4942C4.07934 11.5596 4.05272 11.6346 4.04529 11.7127C4.03786 11.7908 4.04983 11.8696 4.08018 11.942C4.57848 13.1256 5.3797 13.9307 6.43508 14.402C6.46314 14.7601 6.62507 15.0944 6.88861 15.3385C7.15215 15.5826 7.49795 15.7184 7.85714 15.7189C8.11138 15.7186 8.36092 15.6504 8.58 15.5214C8.79908 15.3924 8.97975 15.2072 9.10342 14.9851C9.11667 14.9869 9.13 14.9882 9.14342 14.9888C9.55858 15.018 9.999 15.0297 10.4613 15.0297C10.5356 15.0297 10.609 15.0247 10.6827 15.0214C10.9324 15.4377 11.3842 15.7189 11.9047 15.7189C12.6933 15.7189 13.3333 15.0789 13.3333 14.2903C13.3333 14.2442 13.3264 14.1997 13.3222 14.1546C14.7626 13.1942 15.7142 11.5401 15.7142 9.6605C15.7142 6.70594 13.3626 4.29037 10.4613 4.29037ZM10.4613 5.24274C12.8352 5.24274 14.7619 7.20844 14.7619 9.6605C14.7619 11.2801 13.918 12.6865 12.6637 13.4561C12.6634 13.4561 12.6631 13.4561 12.6627 13.4561C12.4422 13.5916 12.206 13.7004 11.9624 13.7937L11.5458 13.9286C11.2964 13.9951 11.0408 14.046 10.7757 14.0652C10.7741 14.0652 10.7726 14.0652 10.771 14.0652C10.6716 14.0736 10.5689 14.0774 10.4613 14.0774C10.0333 14.0774 9.63408 14.0658 9.2615 14.0411C9.203 13.711 9.03033 13.4119 8.77358 13.1963C8.51683 12.9807 8.19241 12.8623 7.85714 12.8618C7.62863 12.8622 7.40354 12.9173 7.20077 13.0227C6.99798 13.128 6.82344 13.2805 6.69178 13.4672C6.05558 13.1426 5.60067 12.6554 5.22879 11.9847C5.31277 11.9388 5.43447 11.9483 5.50409 11.888C5.7532 11.6722 5.89961 11.3943 5.99052 11.1217C6.17232 10.5763 6.16072 10.0101 6.16072 9.6605C6.16028 7.20849 8.08733 5.24274 10.4613 5.24274ZM9.4885 7.6237C9.41083 7.62186 9.33367 7.63556 9.26142 7.66398C9.18917 7.69242 9.12333 7.73501 9.06775 7.78926C9.01225 7.8435 8.96808 7.90831 8.93792 7.97986C8.90783 8.05142 8.89225 8.12828 8.89225 8.20592C8.89225 8.28356 8.90783 8.36042 8.93792 8.432C8.96808 8.5035 9.01225 8.56833 9.06775 8.62258C9.12333 8.67683 9.18917 8.71942 9.26142 8.74783C9.33367 8.77625 9.41083 8.79 9.4885 8.78817C9.56608 8.79 9.64333 8.77625 9.7155 8.74783C9.78775 8.71942 9.85358 8.67683 9.90917 8.62258C9.96475 8.56833 10.0088 8.5035 10.039 8.432C10.0692 8.36042 10.0847 8.28356 10.0847 8.20592C10.0847 8.12828 10.0692 8.05142 10.039 7.97986C10.0088 7.90831 9.96475 7.8435 9.90917 7.78926C9.85358 7.73501 9.78775 7.69242 9.7155 7.66398C9.64333 7.63556 9.56608 7.62186 9.4885 7.6237ZM12.7511 7.6237C12.6735 7.62186 12.5963 7.63556 12.5241 7.66398C12.4518 7.69242 12.386 7.73501 12.3304 7.78926C12.2748 7.8435 12.2307 7.90831 12.2006 7.97986C12.1704 8.05142 12.1549 8.12828 12.1549 8.20592C12.1549 8.28356 12.1704 8.36042 12.2006 8.432C12.2307 8.5035 12.2748 8.56833 12.3304 8.62258C12.386 8.67683 12.4518 8.71942 12.5241 8.74783C12.5963 8.77625 12.6735 8.79 12.7511 8.78817C12.8287 8.79 12.9059 8.77625 12.9782 8.74783C13.0504 8.71942 13.1162 8.67683 13.1718 8.62258C13.2273 8.56833 13.2715 8.5035 13.3017 8.432C13.3317 8.36042 13.3473 8.28356 13.3473 8.20592C13.3473 8.12828 13.3317 8.05142 13.3017 7.97986C13.2715 7.90831 13.2273 7.8435 13.1718 7.78926C13.1162 7.73501 13.0504 7.69242 12.9782 7.66398C12.9059 7.63556 12.8287 7.62186 12.7511 7.6237ZM9.39358 10.1097C9.315 10.1123 9.23825 10.1342 9.17017 10.1737C9.10208 10.2132 9.04492 10.2689 9.00367 10.3359C8.96233 10.4028 8.93833 10.479 8.93367 10.5575C8.929 10.6361 8.94383 10.7145 8.97692 10.7859C8.97692 10.7859 9.61858 12.1168 11.1597 12.1168C12.701 12.1168 13.3427 10.7859 13.3427 10.7859C13.3939 10.6705 13.3973 10.5393 13.3519 10.4215C13.3066 10.3036 13.2162 10.2085 13.1008 10.1572C12.9854 10.1058 12.8542 10.1025 12.7364 10.1479C12.6185 10.1932 12.5234 10.2836 12.4721 10.399C12.4721 10.399 12.1814 11.1644 11.1597 11.1644C10.1382 11.1644 9.8475 10.399 9.8475 10.399C9.80983 10.3107 9.74633 10.2357 9.66533 10.1841C9.58433 10.1325 9.48958 10.1066 9.39358 10.1097Z" fill="#005930"/>
</svg>
