<svg width="21" height="20" viewBox="0 0 21 20" fill="none" xmlns="http://www.w3.org/2000/svg">
<path d="M0.0568848 20L1.46943 14.8642C0.597787 13.3608 0.139779 11.6567 0.140616 9.90917C0.143128 4.44583 4.61018 0 10.0987 0C12.7622 0.000833333 15.2624 1.03333 17.143 2.90667C19.0228 4.78 20.0577 7.27 20.0569 9.91833C20.0544 15.3825 15.5873 19.8283 10.0987 19.8283C8.4325 19.8275 6.79054 19.4117 5.33613 18.6217L0.0568848 20V20ZM5.58062 16.8275C6.98395 17.6567 8.32365 18.1533 10.0954 18.1542C14.6571 18.1542 18.3731 14.4592 18.3756 9.91667C18.3772 5.365 14.6788 1.675 10.1021 1.67333C5.53708 1.67333 1.82361 5.36833 1.82194 9.91C1.8211 11.7642 2.36702 13.1525 3.28388 14.605L2.44741 17.645L5.58062 16.8275V16.8275ZM15.1151 12.2742C15.0531 12.1708 14.8873 12.1092 14.6378 11.985C14.3891 11.8608 13.1658 11.2617 12.9372 11.1792C12.7095 11.0967 12.5437 11.055 12.3771 11.3033C12.2113 11.5508 11.734 12.1092 11.5892 12.2742C11.4443 12.4392 11.2986 12.46 11.0499 12.3358C10.8013 12.2117 9.99911 11.9508 9.04876 11.1067C8.30942 10.45 7.80954 9.63917 7.66469 9.39083C7.51983 9.14333 7.64962 9.00917 7.77354 8.88583C7.88574 8.775 8.02222 8.59667 8.14698 8.45167C8.27341 8.30833 8.31444 8.205 8.39817 8.03917C8.48107 7.87417 8.44004 7.72917 8.37724 7.605C8.31444 7.48167 7.81708 6.2625 7.61026 5.76667C7.40763 5.28417 7.20249 5.34917 7.0501 5.34167L6.57284 5.33333C6.40705 5.33333 6.13743 5.395 5.90968 5.64333C5.68194 5.89167 5.03888 6.49 5.03888 7.70917C5.03888 8.92833 5.93062 10.1058 6.05454 10.2708C6.1793 10.4358 7.8087 12.9375 10.3047 14.01C10.8984 14.265 11.3623 14.4175 11.7231 14.5317C12.3193 14.72 12.8619 14.6933 13.2906 14.63C13.7687 14.5592 14.7626 14.0308 14.9702 13.4525C15.1779 12.8733 15.1779 12.3775 15.1151 12.2742V12.2742Z" fill="#005930"/>
</svg>
