<svg width="703" height="692" viewBox="0 0 703 692" fill="none" xmlns="http://www.w3.org/2000/svg">
<path d="M154.766 169.73C203.112 137.588 259.894 123.204 319.561 107.704C379.318 91.856 442.219 75.3299 495.323 91.1876C548.426 107.045 591.644 155.635 613.111 209.409C634.668 262.835 634.038 321.703 630.201 377.15C626.454 432.248 619.154 483.836 600.072 536.483C581.079 588.783 550.395 641.794 506.137 647.883C461.968 653.624 404.753 611.837 346.468 601.703C288.182 591.569 228.916 612.741 193.175 595.771C157.086 578.711 144.265 523.073 120.538 467.977C97.1597 412.97 62.3576 357.63 64.6927 305.139C67.1171 252.3 106.679 202.31 154.766 169.73Z" fill="#E7E7E7"/>
</svg>
