<svg width="151" height="130" viewBox="0 0 151 130" fill="none" xmlns="http://www.w3.org/2000/svg">
<path d="M63.1591 97.2168V109.129H25.7129C28.0163 99.986 36.2395 93.5786 45.6681 93.5801H59.5244C61.5321 93.5813 63.1591 95.2091 63.1591 97.2168Z" fill="#F7F7F7"/>
<path d="M72.3343 75.9526C72.3343 75.9526 72.912 75.8162 73.1038 77.8712C73.2957 79.9262 74.8092 84.4796 72.3343 84.3837C69.8593 84.2878 40.0831 84.3304 40.0831 84.3304C40.0831 84.3304 35.4914 85.6521 34.935 82.0196C34.3786 78.3871 34.6259 73.6525 39.4628 72.1006C39.4628 72.1006 46.2375 75.279 53.3746 75.6009C60.5116 75.9228 72.3343 75.9526 72.3343 75.9526Z" fill="#2E2E2E"/>
<path d="M130.042 93.9559C130.042 93.9559 128.45 92.8559 124.668 94.2927C120.887 95.7295 113.771 97.5095 110.113 109.044H63.174V97.1279C63.1728 95.1191 61.5439 93.4912 59.5351 93.4912H43.2187C34.5939 93.4874 26.8826 98.8649 23.9051 106.96H23.3765V104.097C23.402 103.796 23.4383 103.5 23.4745 103.21C24.7941 93.1394 33.5982 85.7295 43.7517 85.7295H69.857V97.7355C69.8572 100.089 71.5138 102.117 73.8199 102.587C74.1416 102.649 74.4686 102.68 74.7962 102.679H91.2746C95.2145 102.69 99.0901 101.68 102.524 99.7478C109.985 95.5398 117.742 87.0512 117.928 68.2279V62.259L118.115 62.1354C118.115 62.1354 118.991 58.2535 123.061 59.1296C123.615 59.4815 124.11 59.9173 124.53 60.4215C125.291 61.3466 125.941 62.7216 125.244 64.4121C125.244 64.4121 123.839 67.0746 120.637 66.6547C120.577 66.8558 120.536 67.062 120.514 67.2708C120.487 67.528 120.487 67.7873 120.514 68.0446C120.627 68.9527 121.198 69.9631 123.2 69.9376H123.319C127.081 69.8246 129.951 66.5609 130.008 63.4379C130.055 60.8372 128.706 57.8954 124.939 55.4417C124.933 55.443 124.928 55.443 124.922 55.4417C124.483 55.1497 124.03 54.8801 123.564 54.6338C123.18 54.4206 122.78 54.2224 122.355 54.0262C121.634 53.8839 120.946 53.6077 120.326 53.2119H132.364C133.132 53.2119 133.754 53.8342 133.754 54.6018V73.2546C133.754 73.6235 133.608 73.9776 133.347 74.2387C133.087 74.4998 132.733 74.6466 132.364 74.6466C131.716 74.6426 131.093 74.8982 130.635 75.3564C130.177 75.8147 129.921 76.4373 129.925 77.0853V86.8913C129.914 90.2097 132.053 93.1533 135.212 94.1691C135.291 94.1946 135.368 94.2202 135.446 94.2415C142.568 96.224 148.078 101.875 149.88 109.044H113.067C113.383 107.863 117.052 95.2563 130.042 93.9559Z" fill="#F7F7F7"/>
<path d="M46.8342 74.7296C45.0373 74.3748 43.2769 73.8553 41.5752 73.1777L46.8342 74.7296Z" fill="#2E2E2E"/>
<path d="M30.5158 61.2551C27.429 60.6326 23.464 60.057 21.5966 57.1877C21.3322 56.7869 20.9997 56.3094 20.9272 55.8277C20.9172 55.7714 20.9122 55.7143 20.9123 55.6571C20.8803 54.6957 22.0272 54.7575 22.7626 54.8726C24.5171 55.1434 26.2502 55.5271 27.9726 55.9385C28.4871 56.0579 28.9973 56.1808 29.5032 56.3073C29.6445 57.9907 29.9844 59.6515 30.5158 61.2551Z" fill="black"/>
<path d="M117.161 59.9303C115.781 63.6566 112.978 63.6715 112.933 63.6715C106.95 62.2305 106.14 62.0684 101.601 60.3503C87.6595 55.0699 79.8914 48.7856 75.7558 43.6225C72.1084 47.3061 71.0809 49.0968 69.8935 52.9254C69.823 53.1629 69.7375 53.3957 69.6377 53.6225C69.6377 53.6225 69.6377 53.6481 69.6228 53.6587L69.3798 54.1725C69.378 54.1797 69.3743 54.1863 69.3691 54.1917C68.6209 55.6242 66.374 57.5449 64.9436 58.2228L38.7872 58.0309L27.975 55.9354C26.2504 55.5261 24.5194 55.1424 22.765 54.8696C22.2406 54.7864 21.503 54.7353 21.1406 55.0614C20.9726 55.21 20.8875 55.4311 20.9125 55.654C20.9125 54.4027 21.5627 53.5457 22.3195 52.6398C23.1231 51.6634 23.9332 50.6871 24.7369 49.7171C29.2561 44.326 33.6667 38.8453 38.1967 33.4669C39.3116 32.1431 40.4478 30.847 41.6629 29.6169C45.9114 25.3002 50.8294 21.5163 56.212 18.7046C64.933 14.1746 71.6991 12.5225 77.1884 12.8892H77.2566C77.7192 12.9254 78.169 12.9723 78.6166 13.0299L78.8042 13.0554C83.0123 13.6523 86.4465 15.4835 89.4629 18.0842C89.8225 18.5005 90.1436 18.9486 90.4222 19.423C91.6565 21.5142 92.5028 23.7504 93.3683 26.0058C97.5209 36.8777 105.093 46.5067 116.012 51.0985L116.048 51.9192V52.1836C116.048 52.1217 116.048 52.0386 116.048 51.9192C116.048 51.7274 116.033 51.4609 116.018 51.0985C116.018 51.0623 116.018 51.026 116.018 50.9898L116.824 51.4161L117.696 51.8894C117.694 51.9049 117.694 51.9207 117.696 51.9363C117.934 55.3854 117.794 58.2143 117.161 59.9303Z" fill="#2E2E2E" fill-opacity="0.5"/>
<path d="M0 129.464H140.079" stroke="black"/>
<path d="M69.9702 53.2969H79.4629C86.2546 53.2969 90.3347 59.8371 89.497 66.5137L85.3081 97.053H74.8903L72.912 75.9019" stroke="black"/>
<path d="M72.4687 31.8496C72.4687 31.8496 67.8428 52.7769 113.112 63.685C113.112 63.685 118.9 63.8492 117.689 51.9157" stroke="black"/>
<path d="M75.2356 75.953H64.5108C48.7743 75.953 36.8494 74.87 31.6522 63.672C30.5716 61.3498 29.9057 58.8564 29.6846 56.3047" stroke="black"/>
<path d="M117.342 59.5367C120.139 59.558 118.817 59.3704 121.546 60.1186C123.055 60.545 124.364 61.3017 124.368 63.1905C124.368 65.6505 119.081 65.8722 120.678 68.6477C122.383 71.6172 127.783 68.7948 128.851 66.8741C133.605 58.3066 122.989 54.2137 116.606 51.3486" stroke="black"/>
<path d="M30.7034 61.2543C27.6166 60.6318 23.6537 60.0562 21.7842 57.1869C21.5198 56.7861 21.1873 56.3086 21.1148 55.8269C20.94 54.6906 22.1807 54.761 22.9524 54.8718C28.1261 55.6606 33.0909 57.4768 38.3009 57.9479C39.7526 58.078 41.2171 58.1419 42.6752 58.1419H63.076C66.3029 58.1293 69.1441 56.0135 70.0809 52.9256C71.0871 49.6789 72.8053 46.202 75.73 43.5459" stroke="black"/>
<path d="M96.0373 13.7465C95.8241 13.7465 84.2296 12.525 78.7915 13.0344" stroke="black"/>
<circle cx="121.804" cy="62.8963" r="3.76252" fill="#005930"/>
<circle cx="121.804" cy="62.8963" r="3.76252" stroke="black"/>
<circle cx="121.804" cy="62.8963" r="3.76252" stroke="black"/>
<path d="M92.7029 13.0109C93.0199 13.8288 93.4154 14.6141 93.8839 15.3558C93.9329 15.4368 94.2804 15.2833 94.5681 15.6948C95.1586 16.5347 96.2735 16.6306 96.5656 16.2852L96.5379 16.2661L96.2224 16.0742L96.9344 16.2383L97.4012 16.2554L98.0898 15.5839C98.0898 15.5839 94.8112 13.1217 96.4547 11.4078C96.4547 11.4078 96.4547 11.4078 96.4675 11.395C96.5034 11.3578 96.5355 11.3171 96.5635 11.2735C96.6445 11.1456 96.5464 11.152 96.702 11.1286C96.9384 10.9004 97.2646 10.7901 97.591 10.828C97.7728 10.835 97.9476 10.9 98.0898 11.0134C98.1111 9.76638 97.9981 8.36796 98.7613 7.81584C99.0683 7.17631 99.5756 6.74997 100.386 6.78194C100.62 6.7926 100.833 6.80965 101.036 6.83737L103.229 7.36604C103.692 6.72652 104.035 7.27437 104.681 7.48755C104.903 7.56174 105.139 7.58077 105.37 7.54297C105.682 7.48945 105.97 7.34052 106.195 7.11662C106.608 6.11897 106.683 4.86977 106.32 4.1194C106.32 4.1194 104.306 4.04478 102.91 3.67386C101.513 3.30294 101.012 0.785351 97.009 3.32852C96.8 3.46039 96.5665 3.54884 96.3226 3.58859C95.8962 3.64615 95.2205 3.67173 94.7387 3.401C94.7029 3.38249 94.6687 3.36111 94.6364 3.33705C94.5837 3.30705 94.5357 3.26972 94.4935 3.2262C94.6129 3.34344 94.2399 4.44129 94.048 4.98701C94.0468 4.99335 94.0468 4.99986 94.048 5.0062C94.0246 5.08081 93.9968 5.14263 93.9798 5.19166V5.20658C93.9717 5.22979 93.9625 5.25256 93.9521 5.2748C93.7619 5.69573 93.5152 6.08875 93.2188 6.44299L93.0738 6.63698C92.8795 6.88952 92.7109 7.16089 92.5707 7.44704C91.7436 9.16736 91.9887 11.1605 92.7029 13.0109Z" fill="#005930"/>
<path fill-rule="evenodd" clip-rule="evenodd" d="M96.5549 16.294C97.2797 16.3687 97.9597 16.245 98.094 15.5842L98.1175 15.4712C98.1175 15.4712 94.9902 13.316 96.459 11.4081C96.459 11.4081 96.459 11.4081 96.4718 11.3953C96.4846 11.3825 96.5144 11.3356 96.5357 11.31C96.5571 11.2844 96.5592 11.2844 96.5677 11.2738C96.6189 11.2184 96.6572 11.1736 96.7063 11.1288C97.0623 10.7792 97.3458 10.7195 97.5952 10.8283C97.6575 10.8558 97.7145 10.894 97.7636 10.9412C98.1559 11.2759 98.3797 12.0647 98.5012 12.6466C98.3392 11.4912 98.1132 9.16123 98.7655 7.8161C99.0725 7.17658 99.5799 6.75023 100.39 6.78221L101.04 6.83763L103.234 7.36631L104.685 7.48782L105.374 7.54324C105.686 7.48972 105.975 7.34079 106.199 7.11689C107.243 6.13416 107.629 3.74235 107.035 2.60186C107.035 2.60186 104.943 2.65729 103.479 2.36098C102.014 2.06466 101.383 -0.698072 97.0452 2.61465C96.346 3.041 95.5317 3.39274 94.7429 3.01755C94.7525 3.14528 94.7525 3.27354 94.7429 3.40127C94.7174 3.61925 94.6547 3.83123 94.5575 4.028C94.3997 4.35202 94.2335 4.66752 94.0523 4.98728C94.051 4.99362 94.051 5.00013 94.0523 5.00647C93.8796 5.31131 93.6941 5.61615 93.5172 5.91885C93.4127 6.09792 93.304 6.27059 93.2187 6.44326C92.855 7.06545 92.5889 7.73984 92.43 8.44284C92.2654 9.2584 92.2216 10.0937 92.3 10.9221C92.3649 11.6341 92.5079 12.3368 92.7263 13.0176C93.1207 14.2966 93.5044 15.3156 94.8389 15.8506C95.3897 16.0707 95.9664 16.2197 96.5549 16.294V16.294Z" stroke="black"/>
<path d="M104.777 9.41519C104.777 9.41519 102.665 9.36403 102.115 11.1206" stroke="black"/>
<path d="M105.549 7.58203L105.594 11.4874C105.6 11.6063 105.643 11.7204 105.717 11.8135C106.169 12.517 106.583 13.2482 106.984 13.9858C107.084 14.1683 107.086 14.3885 106.991 14.5735C106.896 14.7585 106.715 14.8841 106.508 14.9088C106.041 14.9463 105.571 14.8994 105.121 14.7703" stroke="black"/>
<ellipse cx="104.142" cy="11.1922" rx="0.552121" ry="0.648049" transform="rotate(-5 104.142 11.1922)" fill="black"/>
<path d="M105.741 15.1768C105.195 17.3405 103.208 21.1947 100.411 20.5786C99.0981 20.2887 98.2006 18.9372 97.333 18.0098" stroke="black" stroke-linecap="round" stroke-linejoin="round"/>
<path d="M133.88 56.2979C137.05 57.9222 139.209 61.1305 139.209 64.8248C139.209 68.6342 136.922 71.9235 133.596 73.4967L133.88 56.2979Z" fill="#005930"/>
<path fill-rule="evenodd" clip-rule="evenodd" d="M87.408 97.0537H74.8521V102.763H90.8934V100.541C90.8934 98.616 89.3333 97.0549 87.408 97.0537Z" stroke="black"/>
<path d="M99.0639 19.8545C96.3502 20.4471 92.6133 24.0647 92.6133 24.0647" stroke="black"/>
<path d="M104.777 17.6053C104.777 17.6053 103.549 17.9315 103.036 16.3135" stroke="black"/>
<path d="M38.902 71.7861C38.902 71.7861 30.9058 77.2285 36.7702 84.8963" stroke="black"/>
<path d="M24.0119 107.056H20.8975V102.762C20.9273 102.462 20.9593 102.167 20.9977 101.875C22.3129 91.805 31.1192 84.3951 41.2748 84.3951H69.9702V97.8251C69.9696 99.1354 70.4897 100.392 71.4161 101.319C72.3424 102.246 73.5991 102.766 74.9094 102.766H91.3878C95.3284 102.777 99.2049 101.768 102.641 99.8396C110.09 95.623 117.855 87.1344 118.041 68.3132V62.8965" stroke="black"/>
<path d="M21.0895 55.6508C21.0878 55.4542 21.105 55.2579 21.1406 55.0645C21.2962 54.1202 21.8612 53.4039 22.49 52.6429C23.3001 51.6665 24.1037 50.6902 24.9138 49.7203C29.431 44.3291 33.8415 38.8484 38.3715 33.47C39.4821 32.1462 40.6247 30.8501 41.8377 29.6201C46.0884 25.3033 51.0042 21.5195 56.3868 18.7077C61.0255 16.3009 65.9541 14.199 71.1278 13.2867C73.1238 12.9215 75.1555 12.7892 77.182 12.8923H77.2502C79.2715 13.0001 81.2644 13.4171 83.1594 14.1287C85.5363 15.0304 87.8258 16.1816 89.4651 18.0873C89.8247 18.5036 90.1458 18.9517 90.4244 19.4261C91.6586 21.5173 92.5049 23.7535 93.3704 26.0089C97.5231 36.8808 105.095 46.5099 116.014 51.1016C116.206 51.189 116.398 51.2679 116.594 51.3446C116.666 51.3766 116.741 51.4022 116.807 51.4278C116.992 51.5067 117.184 51.5749 117.382 51.641" stroke="black"/>
<path d="M133.88 54.6299C137.638 56.1815 140.09 59.8464 140.09 63.9126C140.09 67.9787 137.638 71.6436 133.88 73.1952" stroke="black"/>
<path fill-rule="evenodd" clip-rule="evenodd" d="M63.2869 109.13H23.3765C25.6799 99.987 33.903 93.5796 43.3317 93.5811H59.6502C61.6587 93.5811 63.2869 95.2093 63.2869 97.2178V109.13Z" stroke="black"/>
<path d="M23.3765 109.13H63.2869H110.083" stroke="black"/>
<path d="M120.897 53.2949H132.477C133.246 53.2949 133.869 53.9182 133.869 54.6869V73.3397C133.869 73.7087 133.722 74.0625 133.461 74.3232C133.2 74.584 132.846 74.7302 132.477 74.7296C131.132 74.7319 130.043 75.8231 130.043 77.1683V86.9743C130.025 90.388 132.282 93.3961 135.564 94.3352C142.681 96.3237 148.189 101.971 150 109.136H110.083C112.385 99.9893 120.611 93.5787 130.043 93.5806" stroke="black"/>
<path d="M58.0879 109.13C60.1009 115.494 57.8066 122.432 52.3961 126.342C46.9857 130.251 39.6783 130.251 34.2678 126.342C28.8574 122.432 26.563 115.494 28.5761 109.13" stroke="black"/>
<path d="M144.796 109.13C146.811 115.495 144.517 122.436 139.105 126.346C133.694 130.257 126.384 130.257 120.973 126.346C115.561 122.436 113.267 115.495 115.282 109.13" stroke="black"/>
<circle cx="130.038" cy="113.806" r="2.60072" fill="black"/>
<circle cx="43.3317" cy="113.806" r="2.60072" fill="black"/>
<path d="M69.9702 84.3927H73.6581" stroke="black"/>
<path d="M113.067 109.041C113.053 109.099 113.046 109.129 113.046 109.129H110.083C110.095 109.101 110.103 109.071 110.109 109.041H113.067Z" fill="#F7F7F7"/>
<path d="M31.6222 128.01C30.6151 127.179 29.6984 126.243 28.8872 125.22" stroke="black"/>
<path d="M61.7373 113.804C61.744 117.351 60.7197 120.824 58.7891 123.799" stroke="black"/>
<path d="M112.718 119.323C112.353 118.072 112.121 116.786 112.027 115.486" stroke="black"/>
<path d="M147.998 113.804C148.005 117.351 146.981 120.824 145.05 123.799" stroke="black"/>
<path d="M26.7449 121.8C25.542 119.306 24.9196 116.572 24.9243 113.804" stroke="black"/>
<path d="M67.463 11.5381C67.463 11.5381 56.7808 13.0857 45.3057 22.7724" stroke="black"/>
</svg>
