<svg width="138" height="130" viewBox="0 0 138 130" fill="none" xmlns="http://www.w3.org/2000/svg">
<path d="M77.9147 54.0814C78.3809 54.587 78.4069 55.3576 77.9759 55.8934L73.9338 62.8459L73.7922 64.2451L72.5346 76.8819L70.5372 96.9522C70.525 97.0798 70.4987 97.2075 70.476 97.3352C70.4638 97.4366 70.4498 97.5381 70.4323 97.6395C70.406 97.7707 70.3745 97.8949 70.3448 98.0208C70.3151 98.1468 70.2958 98.229 70.2644 98.3304C70.2329 98.4319 70.1909 98.5718 70.1472 98.6907L70.0405 98.9898C69.9933 99.1087 69.9443 99.2224 69.8953 99.3396C69.8463 99.4568 69.8026 99.5302 69.7554 99.6264C69.7082 99.7226 69.6452 99.8468 69.5805 99.9518C69.5158 100.057 69.4738 100.137 69.4178 100.225C69.3619 100.312 69.2901 100.431 69.2184 100.532C69.1467 100.634 69.096 100.707 69.0348 100.788C68.9019 100.963 68.7707 101.127 68.6255 101.285C68.5503 101.372 68.4716 101.459 68.3929 101.543C68.3142 101.627 68.218 101.706 68.1375 101.787C68.0571 101.867 67.9784 101.935 67.8944 102.005C67.8105 102.075 67.7195 102.156 67.6233 102.226C67.5271 102.295 67.4484 102.362 67.3592 102.423C67.27 102.484 67.1686 102.556 67.0724 102.623C66.9762 102.689 66.8835 102.74 66.7873 102.797C66.6911 102.855 66.5879 102.913 66.4882 102.972C66.3885 103.032 66.2853 103.074 66.1804 103.121C66.0754 103.168 65.9775 103.222 65.8725 103.266C65.7676 103.31 65.6469 103.355 65.5332 103.394C65.4195 103.432 65.3303 103.473 65.2289 103.504C65.0365 103.565 64.8388 103.618 64.6394 103.663C64.5258 103.689 64.4156 103.71 64.3019 103.728C64.1882 103.745 64.0815 103.772 63.9678 103.791H63.9853L65.5454 107.114L67.0059 107.128C66.5345 107.195 66.0576 107.216 65.5822 107.189L67.8944 112.12C68.6489 113.727 68.5296 115.608 67.5782 117.107C66.6268 118.605 64.9752 119.514 63.2 119.515H60.4015C60.1827 119.515 59.9731 119.603 59.8189 119.758C59.6647 119.913 59.5785 120.123 59.5795 120.342V120.751C61.5523 121.42 62.7511 123.418 62.4122 125.474C62.0734 127.529 60.2965 129.037 58.2135 129.037C56.1304 129.037 54.3536 127.529 54.0147 125.474C53.6759 123.418 54.8747 121.42 56.8475 120.751V120.342C56.8479 120.123 56.7612 119.912 56.6063 119.757C56.4514 119.602 56.2412 119.515 56.0219 119.515H25.1426C24.9234 119.515 24.7131 119.602 24.5582 119.757C24.4034 119.912 24.3166 120.123 24.3171 120.342V120.751C26.2929 121.42 27.494 123.421 27.1551 125.479C26.8162 127.538 25.037 129.048 22.9511 129.048C20.8651 129.048 19.0859 127.538 18.747 125.479C18.4081 123.421 19.6092 121.42 21.5851 120.751V120.342C21.5851 119.885 21.2147 119.515 20.7578 119.515H15.9584C15.5068 119.514 15.1003 119.241 14.9281 118.823C14.756 118.406 14.8519 117.926 15.1713 117.607C15.3797 117.397 15.6631 117.28 15.9584 117.281H62.1943C63.3803 117.28 64.4838 116.674 65.1212 115.674C65.7587 114.674 65.8422 113.418 65.3426 112.342L61.367 103.763L21.5221 100.541C21.4916 100.534 21.4606 100.529 21.4294 100.527C21.2545 100.51 21.0796 100.487 20.9047 100.457C20.8459 100.45 20.7875 100.439 20.7298 100.426C20.5321 100.391 20.3433 100.347 20.1526 100.298L19.9899 100.251C19.815 100.197 19.6401 100.141 19.4652 100.076L19.3288 100.023C19.1696 99.9623 19.0122 99.8923 18.8583 99.8171C18.7931 99.7897 18.7295 99.7588 18.6677 99.7244C18.5277 99.6544 18.3878 99.5792 18.2514 99.4953C15.9155 98.1226 14.4809 95.616 14.4805 92.9066V75.6349C14.4811 71.8259 17.2812 68.5965 21.0516 68.0563L70.9605 60.8852L75.877 54.0762C76.1422 53.796 76.5112 53.6377 76.897 53.6387C77.2827 53.6397 77.651 53.7999 77.9147 54.0814Z" fill="white"/>
<path fill-rule="evenodd" clip-rule="evenodd" d="M115.722 87.1011C124.845 94.3194 131.488 106.271 134.715 112.966C136.161 115.948 136.919 116.646 136.919 116.646L126.706 128.583C126.287 129.077 125.559 129.165 125.034 128.786L124.752 128.58C124.269 128.224 124.107 127.576 124.366 127.035L128.389 118.689H128.499C128.693 118.573 128.382 117.473 119.663 109.05L119.593 108.98L119.418 108.817L117.083 106.601L116.908 106.426L116.775 106.309L105.564 95.6504V95.6417C105.55 95.6382 105.55 95.6242 105.55 95.6242L105.167 95.2744L97.8555 124.203L96.6312 129.029H81.7154C81.6265 129.03 81.5378 129.02 81.4513 128.999C81.2186 128.951 81.0048 128.836 80.8356 128.669C80.7537 128.582 80.6843 128.484 80.6292 128.378C80.5286 128.2 80.4756 127.998 80.4753 127.793C80.4714 127.366 80.6894 126.969 81.0507 126.743C81.1702 126.665 81.3031 126.61 81.4425 126.58L85.2694 125.559L90.3766 124.2L95.232 81.3852L95.4226 79.6589L96.061 74.0025L95.9771 73.5478L95.8983 73.1263V73.1088V73.0948C95.8021 72.5806 95.7059 72.0611 95.6132 71.5521L95.5818 71.358C95.4506 70.5884 95.3317 69.7961 95.2215 69.0143C94.4169 68.8988 93.775 68.7886 93.3955 68.6977L92.8428 68.6137C92.195 68.5147 91.7082 67.9707 91.6814 67.316C91.5625 66.6041 91.9403 65.7418 92.3268 64.8673C92.5647 64.0487 92.8113 63.1253 93.0492 62.1353C93.2694 61.001 93.4766 59.7292 93.6577 58.6178C93.8332 57.5407 93.9841 56.6143 94.0986 56.1099L94.1066 56.0204L94.1185 55.8891C94.1332 55.7275 94.1478 55.568 94.1598 55.4102C94.1571 55.3093 94.1142 55.2135 94.0406 55.1443C93.9671 55.075 93.869 55.0379 93.768 55.0412C93.6462 55.0698 93.5209 55.102 93.3969 55.1339L93.3963 55.134L93.3961 55.1341L93.315 55.1549H93.3028C91.3827 55.6373 89.4626 56.0693 87.5851 56.4918L87.5849 56.4919L87.5848 56.4919C86.3309 56.7741 85.0961 57.0519 83.8929 57.3377C83.4897 57.4715 83.0761 57.5715 82.6564 57.6368C82.2086 57.7534 81.7643 57.87 81.3236 57.9866L81.3813 57.9376C81.1522 58.0548 80.8933 58.0216 80.6467 57.705C80.5018 57.4953 80.4045 57.2565 80.3616 57.0054C80.3041 56.7547 80.2403 56.5057 80.1766 56.2567L80.1766 56.2566C80.0603 55.8021 79.944 55.3476 79.8649 54.882C79.5956 54.7334 79.3287 54.5623 79.0637 54.3923L79.0636 54.3923C78.003 53.7122 76.972 53.0511 75.9365 53.9271C75.6905 54.1321 75.4572 54.4464 75.2155 54.772C74.6324 55.5575 74.0002 56.4092 73.0209 55.9542C71.8106 55.391 71.8595 54.2121 72.0624 53.1172C72.3055 51.7722 73.3969 50.5706 74.686 50.359C75.5654 50.2088 76.456 50.1297 77.348 50.0505L77.3481 50.0505L77.3482 50.0505C78.2532 49.9701 79.1597 49.8896 80.0573 49.7346C81.2186 49.5282 82.3713 49.2729 83.5134 48.9825C85.4181 48.4368 87.8213 47.6497 89.8572 46.9291L90.5953 46.1158L90.5603 46.0905L90.56 46.0903C90.4696 46.025 90.3771 45.9581 90.2874 45.8885L80.0293 39.1144L79.1933 38.5897L79.2247 38.5757C78.3974 38.0178 79.5448 36.246 79.6725 36.0554L79.4346 35.7965C79.051 35.4354 78.6054 35.1462 78.1193 34.943C77.8015 34.8171 77.4743 34.7665 77.1481 34.7161L77.1481 34.7161L77.148 34.7161C76.8263 34.6664 76.5055 34.6168 76.1954 34.4952C75.535 34.2281 74.9739 33.7624 74.5898 33.1624C74.4268 32.9068 74.2897 32.6355 74.1805 32.3526C74.1791 32.3532 74.1775 32.3535 74.176 32.3534C74.1746 32.3534 74.1731 32.3532 74.1718 32.3526C74.1594 32.3212 74.1489 32.2891 74.1403 32.2564C74.1123 32.1934 74.0899 32.1215 74.0686 32.0531L74.0528 32.0028L74.0388 31.9539C74.0099 31.8772 73.9893 31.8005 73.9683 31.7219L73.9549 31.6723C73.9112 31.4974 73.8727 31.3225 73.8412 31.1476C73.7659 30.7364 73.7221 30.3201 73.71 29.9022C73.7013 29.8148 73.7013 29.7273 73.7013 29.6399L73.6208 29.6136L69.2167 28.2476V28.2302L69.0226 28.1689C68.847 28.1146 68.7024 27.9887 68.6245 27.8222C68.5466 27.6557 68.5425 27.4641 68.6133 27.2944L70.3291 23.2349C70.4606 22.9233 70.8079 22.7633 71.1302 22.8658L78.5811 25.2183C78.7601 25.2738 78.9067 25.4036 78.9833 25.5747C79.06 25.7457 79.0594 25.9415 78.9816 26.1121L79.0025 26.1153L79.0026 26.1153C79.0526 26.123 79.1059 26.1313 79.1565 26.1435C80.1086 26.3036 81.006 26.6979 81.7678 27.2909C82.6602 28.037 83.2917 29.0478 83.5711 30.1768C83.7342 30.7624 84.0613 31.2892 84.5138 31.695L94.5953 37.6977C94.7273 37.7317 94.861 37.7586 94.9958 37.7782V37.7957C95.013 37.7972 95.0298 37.8016 95.0466 37.8059C95.0674 37.8113 95.0882 37.8166 95.1095 37.8166V38.7804C95.1305 38.5775 95.1568 38.3798 95.1882 38.1822C95.1926 38.1532 95.1955 38.124 95.197 38.0947C95.4383 35.8909 96.2167 33.8148 97.3168 31.9049C99.1865 28.4925 101.843 25.9984 104.007 24.3665C104.854 23.6928 105.752 23.0847 106.692 22.5475L106.533 22.2572C106.282 22.3901 106.041 22.5248 105.798 22.6612L105.588 22.7801L104.976 20.1408L104.712 19.0022L103.612 17.0398C103.564 17.031 103.512 17.0223 103.458 17.0223C101.954 16.8072 101.065 15.4657 100.568 14.2868C100.273 13.5899 100.107 12.8447 100.08 12.0883V11.9781C99.2994 11.5688 98.8327 10.7381 98.8892 9.85823C98.9174 9.41541 99.0851 8.9929 99.3684 8.65139C99.3719 8.56394 99.3772 8.47649 99.3894 8.38904C99.6413 6.24646 100.57 4.0829 102.188 2.68367C102.456 2.45352 102.745 2.2486 103.05 2.0715C103.88 1.58912 104.808 1.29756 105.765 1.21797C105.768 1.21704 105.771 1.21704 105.773 1.21797C105.875 1.20048 105.975 1.20048 106.076 1.20048C106.085 1.19765 106.093 1.19427 106.101 1.19099C106.117 1.18414 106.132 1.17774 106.148 1.17774C108.593 0.567329 110.559 1.61326 111.97 3.28534C112.461 3.76663 112.887 4.30924 113.238 4.8997C113.246 4.9083 113.252 4.91842 113.256 4.92944C114.079 6.34628 114.506 7.95888 114.491 9.59762C114.517 10.0339 114.537 10.4546 114.557 10.8595V10.8596V10.8596C114.611 11.9692 114.659 12.9596 114.804 13.8233C114.943 14.5441 115.193 15.2387 115.547 15.8819C115.95 16.4648 116.511 16.92 117.165 17.1937C117.677 17.2022 118.187 17.2478 118.692 17.3301C118.846 17.3424 119.005 17.3599 119.162 17.3826C120.874 17.6419 122.497 18.3103 123.895 19.331L123.959 19.3801L123.959 19.3803C124.037 19.4392 124.114 19.4986 124.191 19.5602C125.784 20.7411 127.01 22.3486 127.727 24.1969C127.727 24.1969 127.789 24.781 127.855 25.6258C127.881 25.8672 127.908 26.1138 127.908 26.3604C127.995 27.5401 128.012 28.7241 127.957 29.9057C128.018 30.6131 128.225 31.3001 128.563 31.9241C129.078 32.654 129.715 33.289 130.447 33.8008C130.855 34.0695 131.281 34.3124 131.702 34.5534C131.841 34.6325 131.979 34.7113 132.116 34.7908C132.446 34.9492 132.754 35.1491 133.034 35.3855C134.224 36.2798 135.049 37.5746 135.358 39.0305C135.71 40.2823 135.779 41.5965 135.561 42.8784C135.322 44.463 134.447 45.752 133.398 46.763C132.254 48.0923 130.713 49.0245 128.84 49.6087C127.728 49.9045 126.582 50.0556 125.431 50.0582C123.857 50.0582 122.022 49.7451 120.623 48.5925C119.33 47.6777 118.344 46.1875 118.116 43.8071C117.94 48.0031 117.914 51.8037 117.914 51.8649V51.8737C117.919 51.9122 118.155 56.1448 118.367 60.4825C118.573 63.4908 118.744 66.0252 118.68 67.7882C118.681 67.8847 118.685 67.9804 118.689 68.0726L118.689 68.0727L118.689 68.0732C118.693 68.183 118.697 68.2878 118.697 68.3829C118.71 68.734 118.641 69.0832 118.494 69.4026C118.445 69.6616 118.35 69.9102 118.216 70.1372C118.041 70.41 117.548 70.5954 116.817 70.7143C116.173 70.9133 115.507 71.0309 114.833 71.0641L115.722 87.1011ZM81.8344 57.4727C81.7906 57.5435 81.7421 57.6113 81.6892 57.6756L81.8571 57.534C81.8442 57.5159 81.8364 57.4948 81.8344 57.4727ZM90.3451 46.7548C90.4028 46.7286 90.4588 46.7059 90.52 46.6831L91.1235 46.447L91.1497 46.4593L91.009 46.5116L91.0084 46.5119C90.7933 46.592 90.5715 46.6746 90.3451 46.7548ZM93.0282 36.8583C93.4364 37.2226 93.9176 37.4957 94.4397 37.6593V37.6698C94.4712 37.6786 94.5027 37.6786 94.5377 37.6768L92.4703 36.5242L93.0282 36.8583Z" fill="white"/>
<path d="M91.6868 46.5633L91.3825 46.4496C91.3607 46.438 91.3397 46.4252 91.3195 46.4111C89.7296 45.3827 88.4878 43.931 87.4262 42.3883C86.3068 40.7599 82.4659 39.0844 81.2241 37.5417C80.4283 36.5657 79.5957 35.4429 78.3766 34.9566C77.7487 34.71 77.0771 34.7572 76.4527 34.5089C75.7918 34.2434 75.2308 33.7772 74.8488 33.1761C74.6831 32.9199 74.5442 32.6474 74.4343 32.3628C74.4209 32.3304 74.4098 32.2971 74.4011 32.2631C74.36 32.1644 74.3267 32.0627 74.3014 31.9588C74.2681 31.8643 74.2436 31.7734 74.2192 31.6772C74.1713 31.5046 74.1333 31.3294 74.1055 31.1525C74.0403 30.7571 73.9988 30.3582 73.9813 29.9579V29.9386C73.9673 29.5329 73.9725 29.1341 73.9918 28.744V28.7335H73.9725L72.1868 28.1056C71.6848 27.9398 71.3141 27.512 71.2213 26.9915C71.197 26.8492 71.2018 26.7034 71.2353 26.563C71.3178 26.1876 71.5616 25.8676 71.9017 25.6885C72.2155 25.5222 72.5844 25.4943 72.9196 25.6115L76.5139 26.9163L77.252 27.1821L77.2712 27.1926C77.2712 27.1926 77.2712 26.0977 78.3207 26.1205C79.2914 26.145 82.8087 26.4301 83.8511 30.2762C84.0137 30.861 84.341 31.3867 84.7939 31.7909L93.2907 36.8788C93.8683 37.4023 94.5933 37.7352 95.3668 37.8321V38.9112C95.3645 38.9132 95.3632 38.9161 95.3632 38.9191C95.3632 38.9221 95.3645 38.925 95.3668 38.927V39.7123L96.0419 44.4434L96.5177 47.7509C95.8969 47.8014 95.2723 47.7791 94.6567 47.6844L94.2527 47.5322H94.2422L91.6868 46.5633Z" fill="white"/>
<path d="M95.2555 38.8541V38.8681C95.0544 40.6399 94.855 42.6967 94.6976 44.9722C93.5642 45.4969 92.4081 45.9517 91.2712 46.4047C91.2494 46.3932 91.2284 46.3803 91.2082 46.3662C90.4357 45.8588 89.7264 45.2611 89.0954 44.5857L79.4512 38.6005C80.0479 38.2985 80.5797 37.8825 81.0166 37.3762L81.0463 37.3464C82.8635 35.3945 84.4394 32.0993 84.6353 31.6865L84.6773 31.7302L93.1741 36.8182C93.7519 37.3413 94.4768 37.6735 95.2503 37.7697L95.2555 38.8541Z" fill="#2E2E2E" fill-opacity="0.5"/>
<path d="M78.1479 28.8149L77.9538 29.3396L77.7684 29.8486L77.6669 30.1372L77.653 30.1809L77.6337 30.2334C77.5386 30.5064 77.2407 30.6511 76.9673 30.5569L73.8925 29.6124H73.8785L69.4604 28.2552L70.6078 25.5424L71.1133 24.3478C71.2468 24.0364 71.5951 23.8774 71.9179 23.9805L78.0063 25.9045C77.809 25.8594 77.6083 25.8308 77.4063 25.8188C77.1159 25.8014 76.8329 25.915 76.635 26.1284C76.4475 26.3415 76.3716 26.6307 76.4304 26.9084C76.5215 27.2599 76.7023 27.5817 76.9551 27.8424C76.9796 27.8704 77.0041 27.8949 77.032 27.9229C77.2582 28.1736 77.5198 28.3898 77.8086 28.5648C77.8086 28.5648 77.8174 28.5648 77.8279 28.5788C77.8384 28.5928 77.8279 28.5788 77.8279 28.5788C77.929 28.6648 78.0359 28.7436 78.1479 28.8149Z" fill="#005930"/>
<path d="M73.959 29.6123C73.959 29.7068 73.959 29.8082 73.9695 29.9026C73.982 30.3211 74.0265 30.738 74.1024 31.1497C74.1304 31.3266 74.1683 31.5018 74.2161 31.6744C74.2406 31.7689 74.2633 31.8598 74.2965 31.9543C74.3298 32.0487 74.3648 32.1642 74.4067 32.2691C74.4202 32.3079 74.436 32.3458 74.454 32.3828C74.5526 32.6274 74.675 32.8617 74.8195 33.0824C75.2075 33.6874 75.775 34.1559 76.4426 34.4222C77.0618 34.6635 77.7387 34.6216 78.3666 34.8682C79.5664 35.3492 80.3902 36.4301 81.165 37.3973" stroke="black" stroke-width="0.907876"/>
<path d="M79.547 29.1663C79.3721 29.1383 79.1972 29.1051 79.0223 29.0613C78.8474 29.0176 78.718 28.9704 78.5711 28.9144C78.3368 28.8232 78.1118 28.7096 77.8994 28.5751C77.8994 28.5751 77.8854 28.5751 77.8802 28.5611C77.5605 28.3659 77.2732 28.1222 77.0284 27.8388C76.7753 27.5784 76.5944 27.2564 76.5037 26.9048C76.4386 26.6269 76.5152 26.3348 76.7083 26.1247C76.9065 25.9117 77.1893 25.7982 77.4797 25.8151C77.7488 25.8364 78.016 25.8779 78.279 25.9393C78.655 26.0058 79.0311 26.067 79.4036 26.1439C80.3556 26.3062 81.253 26.7003 82.0167 27.2913C82.9071 28.0383 83.5383 29.0479 83.8199 30.1755C83.9808 30.7608 84.3062 31.2876 84.7574 31.6937L95.3618 38.0077" stroke="black" stroke-width="0.907876"/>
<path d="M73.9712 29.9004C73.9712 29.9004 74.3105 31.8086 76.9638 31.7561C77.3849 31.7407 77.752 31.4648 77.8838 31.0646C78.0157 30.6643 77.8845 30.2243 77.555 29.9616L77.52 29.9354" stroke="black" stroke-width="0.907876"/>
<path d="M74.3979 32.2533C74.3979 32.2533 75.6975 33.6053 76.9935 33.0211C78.1391 32.4964 77.3556 31.4697 77.3556 31.4697" stroke="black" stroke-width="0.907876"/>
<path d="M77.9433 29.8749L77.8488 29.8469" stroke="black" stroke-width="0.907876"/>
<path d="M64.2237 103.786C63.6723 103.865 63.1136 103.881 62.5586 103.834L61.6841 103.764L64.2237 103.786Z" fill="#F7F7F7"/>
<path d="M74.0534 64.2529L70.7914 96.96C70.4394 100.478 67.7242 103.297 64.222 103.781C63.6706 103.86 63.112 103.876 62.5569 103.828L61.6824 103.758L21.7746 100.535C20.6181 100.445 19.4979 100.09 18.5004 99.4978C18.0179 98.4838 17.7687 97.3746 17.771 96.2516V95.4908L54.4361 98.4642L55.3107 98.5359C55.8657 98.5817 56.4242 98.5658 56.9757 98.4886C60.477 98.0028 63.1913 95.1844 63.5451 91.6674L66.1687 65.4055L74.0534 64.2529Z" fill="#005930"/>
<path d="M66.1653 65.3857L63.5417 91.6476C63.1879 95.1646 60.4736 97.983 56.9723 98.4688C56.4207 98.546 55.8623 98.5619 55.3072 98.5161L54.4327 98.4444L17.7676 95.471V78.9758C17.7692 75.1669 20.5672 71.9368 24.337 71.3919L66.1653 65.3857Z" fill="#F7F7F7"/>
<path d="M67.2669 107.128C66.7149 107.207 66.1557 107.223 65.6001 107.175L64.7256 107.105L67.2669 107.128Z" fill="#F7F7F7"/>
<path d="M64.2448 103.785L68.1557 112.121C68.9087 113.728 68.7884 115.609 67.8367 117.106C66.8851 118.604 65.2341 119.512 63.4595 119.513H60.661C60.4423 119.512 60.2323 119.599 60.0774 119.754C59.9225 119.908 59.8355 120.118 59.8355 120.337V124.401C59.8355 125.156 59.2239 125.767 58.4695 125.767C57.7151 125.767 57.1035 125.156 57.1035 124.401V120.335C57.104 120.116 57.0171 119.906 56.8621 119.751C56.7071 119.597 56.4969 119.51 56.2779 119.511H25.4004C25.1818 119.511 24.972 119.597 24.8174 119.752C24.6628 119.906 24.5761 120.116 24.5766 120.335V124.4C24.5503 125.136 23.9461 125.719 23.2097 125.719C22.4734 125.719 21.8692 125.136 21.8428 124.4V120.335C21.8433 120.116 21.7567 119.906 21.6021 119.752C21.4475 119.597 21.2377 119.511 21.019 119.511H16.2197C15.6191 119.487 15.1445 118.994 15.1445 118.393C15.1445 117.792 15.6191 117.298 16.2197 117.274H62.4503C63.6347 117.273 64.7368 116.668 65.3741 115.669C66.0114 114.671 66.096 113.417 65.5986 112.342L61.623 103.771" fill="#2E2E2E" fill-opacity="0.5"/>
<path fill-rule="evenodd" clip-rule="evenodd" d="M62.5569 103.833L21.7745 100.536C17.7971 100.216 14.7328 96.8939 14.7329 92.9036V75.6335C14.7341 71.8251 17.5327 68.5958 21.3023 68.0532L71.2094 60.8821L76.1295 54.0696C76.3958 53.7881 76.7669 53.6295 77.1544 53.6319C77.542 53.6342 77.9112 53.7971 78.1741 54.0819C78.6365 54.5887 78.6632 55.3561 78.2371 55.8939L74.1898 62.8533L70.7949 96.9596C70.3805 101.113 66.7171 104.169 62.5569 103.833V103.833Z" stroke="black" stroke-width="0.907876"/>
<path fill-rule="evenodd" clip-rule="evenodd" d="M62.7352 124.773C62.7396 126.946 61.1068 128.773 58.947 129.013C56.7872 129.252 54.7938 127.826 54.3223 125.705C53.8508 123.584 55.0525 121.448 57.1103 120.75V124.402C57.1103 125.156 57.7218 125.768 58.4763 125.768C59.2307 125.768 59.8423 125.156 59.8423 124.402V120.748C61.5713 121.328 62.736 122.949 62.7352 124.773V124.773Z" stroke="black" stroke-width="0.907876"/>
<path fill-rule="evenodd" clip-rule="evenodd" d="M27.4695 124.773C27.4736 126.945 25.8406 128.772 23.6814 129.01C21.5221 129.249 19.5298 127.823 19.0595 125.702C18.5893 123.581 19.7921 121.446 21.8498 120.75V124.402C21.8508 125.156 22.4628 125.768 23.2175 125.768C23.972 125.768 24.5835 125.156 24.5835 124.402V120.748C26.3108 121.329 27.4729 122.95 27.4695 124.773V124.773Z" stroke="black" stroke-width="0.907876"/>
<path d="M64.2448 103.786L68.1557 112.122C68.9087 113.729 68.7884 115.61 67.8367 117.107C66.8851 118.605 65.2341 119.513 63.4595 119.514H60.661C60.4423 119.513 60.2323 119.6 60.0774 119.754C59.9225 119.909 59.8355 120.119 59.8355 120.338V124.402C59.8355 125.157 59.2239 125.768 58.4695 125.768C57.7151 125.768 57.1035 125.157 57.1035 124.402V120.336C57.104 120.117 57.0171 119.907 56.8621 119.752C56.7071 119.598 56.4969 119.511 56.2779 119.512H25.4004C25.1818 119.512 24.972 119.598 24.8174 119.753C24.6628 119.907 24.5761 120.117 24.5766 120.336V124.401C24.5503 125.137 23.9461 125.719 23.2097 125.719C22.4734 125.719 21.8692 125.137 21.8428 124.401V120.336C21.8433 120.117 21.7567 119.907 21.6021 119.753C21.4475 119.598 21.2377 119.512 21.019 119.512H16.2197C15.6191 119.488 15.1445 118.995 15.1445 118.394C15.1445 117.793 15.6191 117.299 16.2197 117.275H62.4503C63.6347 117.274 64.7368 116.669 65.3741 115.67C66.0114 114.672 66.096 113.418 65.5986 112.343L61.623 103.772" stroke="black" stroke-width="0.907876"/>
<path d="M78.2477 28.7666L77.8419 29.8475L77.7317 30.1378L77.6985 30.234C77.6034 30.5016 77.3128 30.645 77.0426 30.5576L73.959 29.6131L69.2716 28.1719C69.096 28.1176 68.9514 27.9917 68.8735 27.8252C68.7956 27.6587 68.7915 27.467 68.8623 27.2974L70.5764 23.2361C70.7105 22.9253 71.0582 22.7666 71.381 22.8688L78.8301 25.2213C79.01 25.2759 79.158 25.4049 79.2365 25.5758C79.3151 25.7466 79.3168 25.9429 79.2411 26.115" stroke="black" stroke-width="0.907876"/>
<path d="M76.7048 26.5719L70.0742 24.4258" stroke="black" stroke-width="0.907876"/>
<path d="M84.7647 31.6943C84.7647 31.6943 82.2146 37.2405 79.7432 38.5576C79.7065 38.5758 79.6825 38.6124 79.6803 38.6533C79.6782 38.6943 79.6982 38.7332 79.7327 38.7552L91.3201 46.4038" stroke="black" stroke-width="0.907876"/>
<path d="M79.9409 36.0498C79.9409 36.0498 78.5102 38.1347 79.5666 38.6454" stroke="black" stroke-width="0.907876"/>
<path d="M80.733 49.656C80.733 49.656 80.147 49.6823 81.3224 51.162C82.4977 52.6417 82.8965 55.4576 82.0972 57.4708C82.0972 57.4708 82.0622 57.9955 84.1541 57.3413C86.2459 56.6872 93.5832 55.1568 93.5832 55.1568C93.5832 55.1568 94.7288 54.5534 94.3737 56.082C94.0187 57.6107 93.3243 63.2338 92.5984 64.8552C91.8726 66.4766 91.166 68.0839 93.6636 68.6926C96.1612 69.3013 109.786 70.5816 109.786 70.5816C109.786 70.5816 119.056 72.6367 118.958 68.3795C118.86 64.1224 118.18 51.8668 118.18 51.8668C118.18 51.8668 118.236 42.4063 118.86 36.8128C118.86 36.8128 120.49 22.6019 115.644 21.2884C110.797 19.9748 109.151 21.3723 107.922 22.0352C106.692 22.6981 95.8534 28.3632 95.2622 40.0503C95.2622 40.0503 95.222 44.5663 94.3073 45.2397C93.3925 45.9131 82.6884 49.6158 80.733 49.656Z" fill="#2E2E2E" fill-opacity="0.5"/>
<path d="M98.1078 124.199L96.8835 129.025H81.9764C81.6492 129.023 81.3357 128.893 81.1019 128.665C80.7833 128.345 80.6636 127.877 80.7894 127.444C80.9153 127.01 81.2667 126.679 81.7071 126.58L90.6412 124.199C90.6412 124.199 95.8131 126.016 98.1078 124.199V124.199Z" fill="#2E2E2E" fill-opacity="0.5"/>
<path d="M115.431 70.8499C115.317 70.8499 115.198 70.8604 115.081 70.8604C114.614 73.8722 114.095 76.8742 113.524 79.8662C106.846 78.3708 97.62 81.0223 97.62 81.0223L97.8142 82.0717C96.2925 82.1539 95.8255 81.5925 95.8255 81.5925L95.4897 81.3844L96.3275 73.9912L96.1666 73.1167V73.0887C96.0669 72.5745 95.9724 72.055 95.8815 71.5408L95.8483 71.3519C95.7153 70.5561 95.5911 69.7568 95.481 68.9609L95.5911 68.9767C95.6296 68.9767 95.6664 68.9907 95.7101 68.9942L95.8045 69.0099C95.8867 69.0187 95.9672 69.0326 96.0476 69.0431C96.2226 69.0659 96.4482 69.0991 96.7 69.1376C96.7997 69.1376 96.9047 69.1621 97.0149 69.1813C100.807 69.7078 110.685 70.9933 115.431 70.8499Z" fill="#005930"/>
<path d="M105.443 95.1791L105.421 95.27L98.108 124.199L96.8837 129.025H81.9766C81.6494 129.022 81.3359 128.893 81.1021 128.664C80.7837 128.344 80.6641 127.877 80.7899 127.443C80.9157 127.009 81.2669 126.678 81.7072 126.578L90.6413 124.199L95.4897 81.3844L96.3275 73.9912" stroke="black" stroke-width="0.907876"/>
<path d="M82.4799 55.2836C81.9552 55.3081 81.6613 55.3134 81.6613 55.3134C81.1366 55.3501 80.6276 55.1507 80.1239 54.8796C78.7772 54.1363 77.4864 52.8332 76.1921 53.9281C75.3543 54.6278 74.6634 56.5972 73.2782 55.9553C72.0696 55.3938 72.1168 54.2062 72.3162 53.1183C72.5646 51.7716 73.6542 50.5717 74.9398 50.3566C76.7098 50.0575 78.5288 50.0435 80.3093 49.7339C83.8957 49.0782 87.4057 48.0573 90.7843 46.6871C94.536 45.1917 98.6288 43.6508 101.399 40.5795C104.689 36.9432 106.779 32.1841 107.921 27.4512" stroke="black" stroke-width="0.907876"/>
<path d="M135.412 39.1382C135.412 39.0997 135.394 39.0612 135.382 39.0227C134.98 37.5836 134.151 36.3 133.005 35.341L132.963 35.3113C132.856 35.2343 132.746 35.1626 132.634 35.0891C132.485 34.9964 132.332 34.9055 132.178 34.8163C132.165 34.8072 132.151 34.8002 132.136 34.7953C131.543 34.5176 130.978 34.1819 130.451 33.7931L130.425 33.7756C129.713 33.3016 129.068 32.7524 128.625 31.9881C128.614 31.9725 128.605 31.9555 128.599 31.9374C128.59 31.9374 128.59 31.9251 128.587 31.9199C128.167 31.3345 127.954 30.6265 127.98 29.9067V29.8858C127.852 28.7296 127.98 27.5141 127.934 26.3404C127.934 26.2687 127.934 26.1953 127.92 26.1236C127.906 26.0519 127.908 25.9609 127.903 25.8892C127.907 25.8649 127.907 25.84 127.903 25.8157C127.886 25.5811 127.856 25.3475 127.814 25.1161C127.408 22.9246 126 20.9709 124.277 19.5927C124.24 19.5596 124.2 19.5298 124.158 19.5035C122.234 18.0867 120.109 17.5358 118.724 17.3224C118.711 17.3207 118.698 17.3207 118.686 17.3224C118.192 17.3132 117.7 17.2687 117.213 17.1895C117.204 17.1895 117.195 17.1895 117.192 17.1895C116.681 17.0892 116.225 16.8032 115.912 16.3867C115.794 16.2352 115.688 16.0744 115.597 15.9057C115.584 15.8958 115.575 15.8824 115.57 15.8672C115.21 15.3088 114.972 14.6806 114.871 14.0237C114.857 13.9607 114.841 13.896 114.832 13.8366C114.533 12.4163 114.525 10.8719 114.516 9.59689C114.4 7.62922 113.528 5.09661 112.008 3.30034C112.008 3.30034 112.008 3.2916 111.999 3.2916C111.559 2.85106 111.063 2.4695 110.525 2.15647C109.159 1.39285 107.593 1.06683 106.036 1.22248C106.036 1.22248 106.036 1.22248 106.028 1.22248C105.072 1.3034 104.146 1.59424 103.315 2.07427C103.01 2.25318 102.721 2.45923 102.453 2.68993C100.831 4.08041 99.9061 6.25097 99.6542 8.3918C99.6332 8.5667 99.6193 8.72062 99.6123 8.88678C99.608 8.90637 99.608 8.92665 99.6123 8.94624C99.4076 9.2204 99.2862 9.54767 99.2624 9.88898C99.2144 10.6622 99.6437 11.3862 100.345 11.715V11.7482V12.0858C100.37 12.8429 100.535 13.5888 100.831 14.2861C101.33 15.4649 102.218 16.8082 103.724 17.0216C103.992 17.0591 104.261 17.0831 104.531 17.0933L105.242 20.1401L105.842 22.7916C108.503 21.277 111.46 19.834 114.273 20.7173L115.527 21.242C116.828 21.6478 117.111 22.8004 118.093 23.8026C121.215 26.3492 124.739 38.4683 124.944 39.2186C124.944 39.228 124.947 39.2371 124.952 39.2449C124.952 39.2449 124.952 39.2449 124.952 39.2536C124.952 39.2624 124.952 39.2659 124.952 39.2746C124.961 39.3103 124.974 39.3449 124.991 39.3778C125.003 39.4145 125.017 39.453 125.033 39.4915C125.064 39.5684 125.094 39.6454 125.124 39.7224C125.741 41.3315 127.747 46.5733 128.204 47.8659C128.729 49.3928 129.154 49.5117 129.154 49.5117C129.177 49.508 129.199 49.4996 129.218 49.4872C129.239 49.4785 129.269 49.4645 129.304 49.4523C130.652 48.9058 131.903 48.1438 133.007 47.196C133.007 47.196 133.007 47.196 133.007 47.1873C134.029 46.1484 134.77 44.8672 135.161 43.4636C135.601 42.0646 135.687 40.5785 135.412 39.1382Z" fill="white"/>
<path d="M101.004 7.89678C101.004 7.89678 101.331 2.45202 106.414 1.17697C111.497 -0.0980822 114.53 5.80668 114.759 9.59685C114.988 13.387 114.759 16.0018 117.43 17.1947C117.43 17.1947 125.148 17.1002 127.992 24.1908C127.992 24.1908 128.377 27.6662 128.219 29.9032C128.062 32.1402 130.854 34.1009 132.373 34.79C133.893 35.4791 136.538 38.2881 135.819 42.8758C135.1 47.4636 129.099 49.6026 129.099 49.6026C129.099 49.6026 123.971 51.1208 120.879 48.5865C117.596 45.8982 118.525 40.9816 118.525 40.9816C118.525 40.9816 120.296 24.9919 117.071 22.3648C115.296 20.9184 114.489 21.0496 113.235 20.287C111.915 19.4842 111.443 19.2376 111 18.6726C110.14 17.5655 108.614 15.8934 109.718 11.9493C110.822 8.00522 109.718 9.99388 108.669 9.43769C108.669 9.43769 107.381 7.45078 105.438 8.85525C103.495 10.2597 103.969 6.83336 103.969 6.83336L103.115 7.98073C103.115 7.98073 101.781 8.24834 101.004 7.89678Z" fill="#005930"/>
<path d="M99.8083 9.77872C99.7611 7.23737 100.709 4.38293 102.684 2.68986C102.952 2.45902 103.24 2.25241 103.544 2.07245C105.678 0.811392 108.643 0.92508 110.766 2.15116C111.895 2.82178 112.837 3.7662 113.505 4.89715L113.523 4.92863C114.345 6.3459 114.772 7.95811 114.759 9.59682C114.77 11.7272 114.782 14.6183 116.15 16.3866C117.014 17.506 118.163 17.1912 119.427 17.3818C121.14 17.639 122.764 18.3083 124.16 19.332C126.046 20.719 127.616 22.7881 128.05 25.1248C128.468 27.3741 127.651 29.9102 128.863 31.9898C129.752 33.5097 131.441 34.2041 132.872 35.0908C135.744 36.8923 136.335 40.3834 135.426 43.4547C134.478 46.6572 132.25 48.6249 129.099 49.6061C129.099 49.6061 118.455 52.2297 118.324 42.9003" stroke="black" stroke-width="0.907876"/>
<ellipse cx="101.321" cy="10.0614" rx="1.84874" ry="1.89421" transform="rotate(-46.65 101.321 10.0614)" fill="#005930" fill-opacity="0.5"/>
<ellipse cx="106.837" cy="10.5669" rx="1.85748" ry="1.90296" transform="rotate(-46.65 106.837 10.5669)" fill="#005930" fill-opacity="0.5"/>
<path d="M103.82 6.67285C103.71 7.42144 103.255 8.11231 102.446 8.3187C101.533 8.55132 101.046 9.43983 100.791 10.3336C100.426 11.6448 100.52 13.0416 101.059 14.2917C101.557 15.467 102.447 16.8103 103.952 17.0254C106.704 17.4172 108.074 16.2576 108.074 16.2576" stroke="black" stroke-width="0.907876"/>
<circle cx="106.113" cy="10.1986" r="0.47399" fill="black"/>
<circle cx="101.955" cy="9.88708" r="0.47399" fill="black"/>
<path d="M103.82 6.67188C103.716 7.12171 103.732 7.5911 103.867 8.03263C103.888 8.10417 103.915 8.1738 103.948 8.24076C104.277 9.01209 105.041 9.62775 106.397 9.5508C109.34 9.38813 110.39 9.20099 110.15 10.553C110.051 11.0315 109.908 11.4998 109.723 11.9522C109.4 12.811 109.174 14.2854 109.506 15.8911C109.889 17.7678 110.799 19.6847 113.865 20.7516" stroke="black" stroke-width="0.907876"/>
<path d="M104.078 10.3135C104.078 10.3135 103.581 12.129 103.632 12.3966C103.682 12.6642 104.317 12.4561 104.317 12.4561" stroke="black" stroke-width="0.907876"/>
<path d="M104.427 14.1193C105.377 14.6318 106.479 14.3082 106.909 13.4512" stroke="black" stroke-width="0.907876"/>
<ellipse cx="106.836" cy="10.5674" rx="2.15482" ry="2.20729" transform="rotate(-46.65 106.836 10.5674)" stroke="black" stroke-width="0.907876"/>
<ellipse cx="101.321" cy="10.0606" rx="2.15482" ry="2.20729" transform="rotate(-46.65 101.321 10.0606)" stroke="black" stroke-width="0.907876"/>
<path fill-rule="evenodd" clip-rule="evenodd" d="M99.4928 9.89265C99.5539 8.95261 100.337 8.22281 101.279 8.22756V8.23456H101.453C102.467 8.33074 103.222 9.21246 103.161 10.2285C103.1 11.1688 102.317 11.8991 101.375 11.8953C101.345 11.8953 101.315 11.8931 101.286 11.8909C101.257 11.8887 101.229 11.8866 101.2 11.8866C100.186 11.7912 99.4308 10.909 99.4928 9.89265ZM101.42 8.55046C101.373 8.54784 101.326 8.54784 101.279 8.55046C100.506 8.54347 99.8629 9.14323 99.8163 9.91471C99.7664 10.7553 100.391 11.4845 101.23 11.5641H101.371C102.144 11.571 102.787 10.9713 102.833 10.1998C102.885 9.35854 102.259 8.62824 101.42 8.55046Z" fill="white"/>
<path d="M104.656 10.3654L103.498 10.2587" stroke="black" stroke-width="0.907876"/>
<path fill-rule="evenodd" clip-rule="evenodd" d="M104.952 10.3936C105.015 9.4285 105.819 8.67988 106.787 8.68657L106.781 8.69356H106.956C107.997 8.78633 108.774 9.69342 108.705 10.7364C108.643 11.7002 107.842 12.4491 106.876 12.4453C106.847 12.4453 106.818 12.4431 106.79 12.4409C106.76 12.4387 106.731 12.4365 106.701 12.4365C105.662 12.3385 104.889 11.4348 104.952 10.3936ZM106.932 9.01049H106.786C105.992 9.00234 105.33 9.61686 105.279 10.4097C105.227 11.2765 105.871 12.0284 106.736 12.1098H106.881C107.675 12.1171 108.337 11.503 108.389 10.7106C108.441 9.84382 107.796 9.0919 106.932 9.01049Z" fill="white"/>
<path d="M106.113 22.9302L105.47 20.1457L104.77 17.1426" stroke="black" stroke-width="0.907876"/>
<path d="M137.181 116.652L126.97 128.589C126.551 129.083 125.823 129.17 125.298 128.791L125.018 128.586C124.534 128.233 124.37 127.584 124.628 127.043L128.641 118.693C128.641 118.693 135.025 118.877 134.972 112.96C136.419 115.949 137.181 116.652 137.181 116.652Z" fill="#2E2E2E" fill-opacity="0.5"/>
<path d="M119.925 109.057L119.854 108.985L117.169 106.433L117.04 106.314L105.825 95.645V95.6346L105.809 95.6206L105.429 95.2708L102.021 92.0298C100.154 90.2521 98.8973 87.9293 98.4315 85.3939L97.8141 82.0847L97.6182 81.0353L96.3274 74.0094L96.1665 73.1349V73.1069C96.0668 72.5927 95.9723 72.0732 95.8814 71.559L95.8481 71.3701" stroke="black" stroke-width="0.907876"/>
<path d="M95.4756 68.9668C95.5858 69.7626 95.71 70.5619 95.8429 71.3577L95.8761 71.5466C95.9671 72.0608 96.0615 72.5803 96.1612 73.0945V73.1225" stroke="black" stroke-width="0.907876" stroke-linejoin="round"/>
<path d="M105.799 95.6279L105.813 95.6419L105.823 95.6524" stroke="black" stroke-width="0.907876" stroke-linejoin="round"/>
<path d="M117.038 106.314L117.167 106.433C118.137 107.342 119.032 108.193 119.852 108.985L119.922 109.057C130.677 119.448 128.639 118.694 128.639 118.694L124.625 127.044C124.368 127.585 124.532 128.233 125.017 128.586L125.297 128.791C125.821 129.171 126.549 129.083 126.969 128.59L137.178 116.653C137.178 116.653 136.417 115.953 134.97 112.96C131.495 105.758 124.074 92.4669 113.858 85.5407C113.08 85.0188 112.693 84.0803 112.877 83.162C113.073 82.214 113.258 81.266 113.44 80.3145C113.468 80.1676 113.496 80.0189 113.52 79.872C114.09 76.8777 114.609 73.8757 115.077 70.8662" stroke="black" stroke-width="0.907876" stroke-linejoin="round"/>
<path d="M94.8076 45.0176C94.965 42.7438 95.1574 40.6852 95.3656 38.8959C95.3935 38.6248 95.4268 38.3572 95.4548 38.0949C95.8815 34.1963 97.9961 30.6772 100.597 27.8245C103.168 25.0051 106.44 22.2643 110.154 21.1537C111.35 20.7767 112.609 20.6406 113.858 20.7531C115.599 20.9625 117.125 22.0149 117.939 23.5673C118.436 24.545 118.754 25.6044 118.876 26.6946V26.7384C119.095 28.4874 118.971 30.3221 118.99 32.0589C119.023 35.6829 118.713 39.3 118.313 42.903" stroke="black" stroke-width="0.907876" stroke-linejoin="round"/>
<path d="M94.4961 54.0803V54.0751" stroke="black" stroke-width="0.907876" stroke-linejoin="round"/>
<path d="M80.3147 49.7285C81.971 51.6665 83.0029 54.4947 82.2928 57.0238C82.1179 57.6237 81.4848 58.437 80.9093 57.6971C80.7638 57.4878 80.6665 57.2489 80.6242 56.9975C80.4616 56.2857 80.2482 55.5861 80.124 54.8637" stroke="black" stroke-width="0.907876"/>
<path d="M81.5859 57.984C95.1148 54.409 114.272 53.1987 118.398 34.337C118.938 31.8256 119.1 29.2476 118.877 26.6885" stroke="black" stroke-width="0.907876"/>
<path d="M94.4572 54.9329C94.1896 59.4455 92.7763 64.3777 91.9963 66.8264C91.8728 67.2107 91.924 67.6298 92.1363 67.9731C92.3487 68.3164 92.7009 68.5493 93.0999 68.6104C93.7383 68.7101 94.5464 68.8291 95.4751 68.9602L95.5853 68.976C95.6238 68.976 95.6605 68.99 95.7042 68.9935L95.7987 69.0092C95.8809 69.0179 95.9613 69.0319 96.0418 69.0424C96.2517 69.0757 96.4703 69.1036 96.6942 69.1369C96.7939 69.1369 96.8988 69.1614 97.009 69.1806C102.431 69.9502 110.508 70.9559 115.078 70.8562C115.197 70.8562 115.316 70.8562 115.428 70.8457L115.778 70.8317L116.117 70.8125C117.366 70.7215 118.216 70.5081 118.459 70.1321C120.033 67.7516 117.112 54.0706 118.512 40.9756" stroke="black" stroke-width="0.907876"/>
<path d="M130.843 129.028H2.77295" stroke="black" stroke-width="0.907876" stroke-linejoin="round"/>
<path d="M8.70744 88.9229C8.70744 88.9229 -8.6343 109.262 8.70744 128.815" stroke="#005930" stroke-opacity="0.5" stroke-width="0.907876"/>
</svg>
